<mxfile host="app.diagrams.net" agent="Mozilla/5.0 (Windows NT 10.0; Win64; x64) AppleWebKit/537.36 (KHTML, like Gecko) Chrome/130.0.0.0 Safari/537.36 OPR/115.0.0.0" version="26.0.5">
  <diagram name="Sayfa -1" id="YdXYsQzLAQFqHlyIqF3L">
    <mxGraphModel grid="1" page="1" gridSize="10" guides="1" tooltips="1" connect="1" arrows="1" fold="1" pageScale="1" pageWidth="4681" pageHeight="3300" math="0" shadow="0">
      <root>
        <mxCell id="0" />
        <mxCell id="1" parent="0" />
        <mxCell id="e0yl_6teW4--W81ir7sx-15" value="" style="endArrow=none;html=1;rounded=0;entryX=0.25;entryY=1;entryDx=0;entryDy=0;" edge="1" parent="1">
          <mxGeometry width="50" height="50" relative="1" as="geometry">
            <mxPoint x="1822.5" y="-1255" as="sourcePoint" />
            <mxPoint x="1818.5" y="-1340" as="targetPoint" />
          </mxGeometry>
        </mxCell>
        <mxCell id="e0yl_6teW4--W81ir7sx-14" value="" style="endArrow=none;html=1;rounded=0;entryX=0.25;entryY=1;entryDx=0;entryDy=0;" edge="1" parent="1" source="e0yl_6teW4--W81ir7sx-1" target="rPpRlWSM9VwXYQuEdTf5-93">
          <mxGeometry width="50" height="50" relative="1" as="geometry">
            <mxPoint x="1892" y="-1264" as="sourcePoint" />
            <mxPoint x="1845" y="-1335" as="targetPoint" />
          </mxGeometry>
        </mxCell>
        <mxCell id="ivYh9PMSLgaFD37jbH0D-4" value="" style="endArrow=none;html=1;rounded=0;entryX=0.313;entryY=1.022;entryDx=0;entryDy=0;entryPerimeter=0;exitX=0.568;exitY=0.051;exitDx=0;exitDy=0;exitPerimeter=0;" edge="1" parent="1">
          <mxGeometry width="50" height="50" relative="1" as="geometry">
            <mxPoint x="1994.68" y="-1826.4799999999998" as="sourcePoint" />
            <mxPoint x="2012.67" y="-1961.02" as="targetPoint" />
          </mxGeometry>
        </mxCell>
        <mxCell id="Ck_vDfP_zAcGL2_wQchA-11" value="" style="endArrow=none;html=1;rounded=0;" edge="1" parent="1" source="rPpRlWSM9VwXYQuEdTf5-198">
          <mxGeometry width="50" height="50" relative="1" as="geometry">
            <mxPoint x="2833.75" y="-2150" as="sourcePoint" />
            <mxPoint x="2870" y="-2160" as="targetPoint" />
          </mxGeometry>
        </mxCell>
        <mxCell id="z_J7w7wu5GQrayQAjd48-4" value="image" style="ellipse;whiteSpace=wrap;html=1;" vertex="1" parent="1">
          <mxGeometry x="2060" y="-1540" width="50" height="30" as="geometry" />
        </mxCell>
        <mxCell id="z_J7w7wu5GQrayQAjd48-6" value="image" style="ellipse;whiteSpace=wrap;html=1;" vertex="1" parent="1">
          <mxGeometry x="2067.5" y="-1535" width="35" height="20" as="geometry" />
        </mxCell>
        <mxCell id="rPpRlWSM9VwXYQuEdTf5-572" value="" style="endArrow=none;html=1;rounded=0;exitX=0.588;exitY=0.032;exitDx=0;exitDy=0;exitPerimeter=0;" edge="1" parent="1">
          <mxGeometry width="50" height="50" relative="1" as="geometry">
            <mxPoint x="3080" y="-1833.12" as="sourcePoint" />
            <mxPoint x="3140" y="-1850" as="targetPoint" />
          </mxGeometry>
        </mxCell>
        <mxCell id="rPpRlWSM9VwXYQuEdTf5-571" value="" style="endArrow=none;html=1;rounded=0;exitX=0.588;exitY=0.032;exitDx=0;exitDy=0;exitPerimeter=0;" edge="1" parent="1">
          <mxGeometry width="50" height="50" relative="1" as="geometry">
            <mxPoint x="3070" y="-1851.25" as="sourcePoint" />
            <mxPoint x="3120" y="-1890" as="targetPoint" />
          </mxGeometry>
        </mxCell>
        <mxCell id="rPpRlWSM9VwXYQuEdTf5-570" value="" style="endArrow=none;html=1;rounded=0;exitX=0.588;exitY=0.032;exitDx=0;exitDy=0;exitPerimeter=0;" edge="1" parent="1" source="rPpRlWSM9VwXYQuEdTf5-280">
          <mxGeometry width="50" height="50" relative="1" as="geometry">
            <mxPoint x="2960" y="-1820" as="sourcePoint" />
            <mxPoint x="3070" y="-1910" as="targetPoint" />
          </mxGeometry>
        </mxCell>
        <mxCell id="rPpRlWSM9VwXYQuEdTf5-559" value="" style="endArrow=none;html=1;rounded=0;entryX=0.318;entryY=0.126;entryDx=0;entryDy=0;entryPerimeter=0;" edge="1" parent="1" target="rPpRlWSM9VwXYQuEdTf5-558">
          <mxGeometry width="50" height="50" relative="1" as="geometry">
            <mxPoint x="2888.75" y="-2202.5" as="sourcePoint" />
            <mxPoint x="2773.75" y="-2152.5" as="targetPoint" />
          </mxGeometry>
        </mxCell>
        <mxCell id="rPpRlWSM9VwXYQuEdTf5-551" value="" style="endArrow=none;html=1;rounded=0;" edge="1" parent="1">
          <mxGeometry width="50" height="50" relative="1" as="geometry">
            <mxPoint x="2690" y="-2090" as="sourcePoint" />
            <mxPoint x="2670" y="-2120" as="targetPoint" />
            <Array as="points">
              <mxPoint x="2670" y="-2120" />
            </Array>
          </mxGeometry>
        </mxCell>
        <mxCell id="rPpRlWSM9VwXYQuEdTf5-546" value="" style="endArrow=none;html=1;rounded=0;" edge="1" parent="1">
          <mxGeometry width="50" height="50" relative="1" as="geometry">
            <mxPoint x="2610" y="-2070" as="sourcePoint" />
            <mxPoint x="2620" y="-2090" as="targetPoint" />
          </mxGeometry>
        </mxCell>
        <mxCell id="rPpRlWSM9VwXYQuEdTf5-535" value="" style="endArrow=none;html=1;rounded=0;entryX=0.98;entryY=0.935;entryDx=0;entryDy=0;entryPerimeter=0;" edge="1" parent="1" source="rPpRlWSM9VwXYQuEdTf5-541" target="rPpRlWSM9VwXYQuEdTf5-227">
          <mxGeometry width="50" height="50" relative="1" as="geometry">
            <mxPoint x="2770" y="-1910" as="sourcePoint" />
            <mxPoint x="2735" y="-1936" as="targetPoint" />
          </mxGeometry>
        </mxCell>
        <mxCell id="rPpRlWSM9VwXYQuEdTf5-511" value="" style="endArrow=none;html=1;rounded=0;exitX=1;exitY=0.5;exitDx=0;exitDy=0;" edge="1" parent="1" source="rPpRlWSM9VwXYQuEdTf5-155">
          <mxGeometry width="50" height="50" relative="1" as="geometry">
            <mxPoint x="2270" y="-1930" as="sourcePoint" />
            <mxPoint x="2300" y="-1920" as="targetPoint" />
          </mxGeometry>
        </mxCell>
        <mxCell id="rPpRlWSM9VwXYQuEdTf5-492" value="" style="endArrow=none;html=1;rounded=0;exitX=0.139;exitY=-0.021;exitDx=0;exitDy=0;exitPerimeter=0;" edge="1" parent="1" source="rPpRlWSM9VwXYQuEdTf5-122" target="rPpRlWSM9VwXYQuEdTf5-491">
          <mxGeometry width="50" height="50" relative="1" as="geometry">
            <mxPoint x="2077" y="-1791" as="sourcePoint" />
            <mxPoint x="2050" y="-1830" as="targetPoint" />
          </mxGeometry>
        </mxCell>
        <mxCell id="rPpRlWSM9VwXYQuEdTf5-477" value="" style="endArrow=none;html=1;rounded=0;entryX=0.75;entryY=1;entryDx=0;entryDy=0;" edge="1" parent="1" source="rPpRlWSM9VwXYQuEdTf5-478" target="rPpRlWSM9VwXYQuEdTf5-319">
          <mxGeometry width="50" height="50" relative="1" as="geometry">
            <mxPoint x="2234.45" y="-1531.31" as="sourcePoint" />
            <mxPoint x="2320.0807932208954" y="-1585" as="targetPoint" />
          </mxGeometry>
        </mxCell>
        <mxCell id="rPpRlWSM9VwXYQuEdTf5-471" value="" style="endArrow=none;html=1;rounded=0;" edge="1" parent="1" source="rPpRlWSM9VwXYQuEdTf5-472" target="rPpRlWSM9VwXYQuEdTf5-93">
          <mxGeometry width="50" height="50" relative="1" as="geometry">
            <mxPoint x="1775.2500000000002" y="-1295" as="sourcePoint" />
            <mxPoint x="1789.9999999999998" y="-1430" as="targetPoint" />
          </mxGeometry>
        </mxCell>
        <mxCell id="rPpRlWSM9VwXYQuEdTf5-407" value="" style="endArrow=none;html=1;rounded=0;exitX=0;exitY=1;exitDx=0;exitDy=0;" edge="1" parent="1" target="rPpRlWSM9VwXYQuEdTf5-408">
          <mxGeometry width="50" height="50" relative="1" as="geometry">
            <mxPoint x="2107.5" y="-1951.83" as="sourcePoint" />
            <mxPoint x="2072.5" y="-1976.83" as="targetPoint" />
          </mxGeometry>
        </mxCell>
        <mxCell id="rPpRlWSM9VwXYQuEdTf5-406" value="" style="endArrow=none;html=1;rounded=0;exitX=0;exitY=1;exitDx=0;exitDy=0;entryX=0.25;entryY=0;entryDx=0;entryDy=0;" edge="1" parent="1" source="rPpRlWSM9VwXYQuEdTf5-101" target="rPpRlWSM9VwXYQuEdTf5-101">
          <mxGeometry width="50" height="50" relative="1" as="geometry">
            <mxPoint x="2070" y="-1980" as="sourcePoint" />
            <mxPoint x="2100" y="-1990" as="targetPoint" />
          </mxGeometry>
        </mxCell>
        <mxCell id="rPpRlWSM9VwXYQuEdTf5-398" value="" style="endArrow=none;html=1;rounded=0;" edge="1" parent="1">
          <mxGeometry width="50" height="50" relative="1" as="geometry">
            <mxPoint x="1959.35" y="-1851.25" as="sourcePoint" />
            <mxPoint x="1940" y="-1880" as="targetPoint" />
          </mxGeometry>
        </mxCell>
        <mxCell id="rPpRlWSM9VwXYQuEdTf5-345" value="" style="endArrow=none;html=1;rounded=0;" edge="1" parent="1">
          <mxGeometry width="50" height="50" relative="1" as="geometry">
            <mxPoint x="2832.5" y="-1465.75" as="sourcePoint" />
            <mxPoint x="2737.5" y="-1533.75" as="targetPoint" />
          </mxGeometry>
        </mxCell>
        <mxCell id="rPpRlWSM9VwXYQuEdTf5-321" value="" style="endArrow=none;html=1;rounded=0;entryX=0.67;entryY=0.047;entryDx=0;entryDy=0;entryPerimeter=0;" edge="1" parent="1" source="rPpRlWSM9VwXYQuEdTf5-322" target="rPpRlWSM9VwXYQuEdTf5-319">
          <mxGeometry width="50" height="50" relative="1" as="geometry">
            <mxPoint x="2310" y="-1650" as="sourcePoint" />
            <mxPoint x="2310" y="-1630" as="targetPoint" />
          </mxGeometry>
        </mxCell>
        <mxCell id="rPpRlWSM9VwXYQuEdTf5-329" value="" style="rhombus;whiteSpace=wrap;html=1;" vertex="1" parent="1">
          <mxGeometry x="2100" y="-1630" width="90" height="90" as="geometry" />
        </mxCell>
        <mxCell id="rPpRlWSM9VwXYQuEdTf5-328" value="" style="rounded=0;whiteSpace=wrap;html=1;" vertex="1" parent="1">
          <mxGeometry x="2240" y="-1620" width="120" height="70" as="geometry" />
        </mxCell>
        <mxCell id="rPpRlWSM9VwXYQuEdTf5-327" value="" style="endArrow=none;html=1;rounded=0;entryX=0.5;entryY=1;entryDx=0;entryDy=0;exitX=0.167;exitY=0.333;exitDx=0;exitDy=0;exitPerimeter=0;" edge="1" parent="1" source="rPpRlWSM9VwXYQuEdTf5-180" target="rPpRlWSM9VwXYQuEdTf5-172">
          <mxGeometry width="50" height="50" relative="1" as="geometry">
            <mxPoint x="2430" y="-1710" as="sourcePoint" />
            <mxPoint x="2480" y="-1760" as="targetPoint" />
          </mxGeometry>
        </mxCell>
        <mxCell id="rPpRlWSM9VwXYQuEdTf5-325" value="" style="endArrow=none;html=1;rounded=0;entryX=0;entryY=0.75;entryDx=0;entryDy=0;" edge="1" parent="1" target="rPpRlWSM9VwXYQuEdTf5-319">
          <mxGeometry width="50" height="50" relative="1" as="geometry">
            <mxPoint x="2160" y="-1572" as="sourcePoint" />
            <mxPoint x="2310" y="-1630" as="targetPoint" />
          </mxGeometry>
        </mxCell>
        <mxCell id="rPpRlWSM9VwXYQuEdTf5-285" value="" style="verticalLabelPosition=bottom;shadow=0;dashed=0;align=center;html=1;verticalAlign=top;shape=mxgraph.electrical.transmission.2_line_bus;rotation=-90;" vertex="1" parent="1">
          <mxGeometry x="2852.5" y="-1390" width="60" height="15" as="geometry" />
        </mxCell>
        <mxCell id="rPpRlWSM9VwXYQuEdTf5-277" value="" style="verticalLabelPosition=bottom;shadow=0;dashed=0;align=center;html=1;verticalAlign=top;shape=mxgraph.electrical.transmission.2_line_bus;rotation=90;" vertex="1" parent="1">
          <mxGeometry x="2450" y="-1702.5" width="210" height="15" as="geometry" />
        </mxCell>
        <mxCell id="rPpRlWSM9VwXYQuEdTf5-268" value="" style="verticalLabelPosition=bottom;shadow=0;dashed=0;align=center;html=1;verticalAlign=top;shape=mxgraph.electrical.transmission.2_line_bus;rotation=-200;" vertex="1" parent="1">
          <mxGeometry x="2593.96" y="-1913.64" width="356.25" height="11.49" as="geometry" />
        </mxCell>
        <mxCell id="rPpRlWSM9VwXYQuEdTf5-261" value="" style="verticalLabelPosition=bottom;shadow=0;dashed=0;align=center;html=1;verticalAlign=top;shape=mxgraph.electrical.transmission.2_line_bus;rotation=-225;" vertex="1" parent="1">
          <mxGeometry x="2587.5" y="-1880" width="67.5" height="10" as="geometry" />
        </mxCell>
        <mxCell id="rPpRlWSM9VwXYQuEdTf5-246" value="" style="verticalLabelPosition=bottom;shadow=0;dashed=0;align=center;html=1;verticalAlign=top;shape=mxgraph.electrical.transmission.2_line_bus;rotation=90;" vertex="1" parent="1">
          <mxGeometry x="2647.5" y="-2015" width="100" height="15" as="geometry" />
        </mxCell>
        <mxCell id="rPpRlWSM9VwXYQuEdTf5-228" value="" style="verticalLabelPosition=bottom;shadow=0;dashed=0;align=center;html=1;verticalAlign=top;shape=mxgraph.electrical.transmission.2_line_bus;rotation=20;" vertex="1" parent="1">
          <mxGeometry x="2555" y="-2005" width="100" height="15" as="geometry" />
        </mxCell>
        <mxCell id="rPpRlWSM9VwXYQuEdTf5-219" value="" style="endArrow=none;html=1;rounded=0;exitX=0.351;exitY=0.897;exitDx=0;exitDy=0;exitPerimeter=0;" edge="1" parent="1" source="rPpRlWSM9VwXYQuEdTf5-108">
          <mxGeometry width="50" height="50" relative="1" as="geometry">
            <mxPoint x="2480" y="-2190" as="sourcePoint" />
            <mxPoint x="2378.4658930087744" y="-2288.75" as="targetPoint" />
          </mxGeometry>
        </mxCell>
        <mxCell id="rPpRlWSM9VwXYQuEdTf5-204" value="" style="endArrow=none;html=1;rounded=0;exitX=0.25;exitY=1;exitDx=0;exitDy=0;" edge="1" parent="1">
          <mxGeometry width="50" height="50" relative="1" as="geometry">
            <mxPoint x="2755" y="-2237.5" as="sourcePoint" />
            <mxPoint x="2800" y="-2290" as="targetPoint" />
          </mxGeometry>
        </mxCell>
        <mxCell id="rPpRlWSM9VwXYQuEdTf5-203" value="" style="endArrow=none;html=1;rounded=0;entryX=0.617;entryY=0.915;entryDx=0;entryDy=0;entryPerimeter=0;" edge="1" parent="1" source="rPpRlWSM9VwXYQuEdTf5-212" target="rPpRlWSM9VwXYQuEdTf5-202">
          <mxGeometry width="50" height="50" relative="1" as="geometry">
            <mxPoint x="2720" y="-2290" as="sourcePoint" />
            <mxPoint x="2580" y="-2270" as="targetPoint" />
          </mxGeometry>
        </mxCell>
        <mxCell id="rPpRlWSM9VwXYQuEdTf5-200" value="" style="verticalLabelPosition=bottom;shadow=0;dashed=0;align=center;html=1;verticalAlign=top;shape=mxgraph.electrical.transmission.2_line_bus;rotation=90;" vertex="1" parent="1">
          <mxGeometry x="2710" y="-2202.5" width="100" height="15" as="geometry" />
        </mxCell>
        <mxCell id="rPpRlWSM9VwXYQuEdTf5-192" value="" style="endArrow=none;html=1;rounded=0;exitX=0.93;exitY=0.083;exitDx=0;exitDy=0;exitPerimeter=0;" edge="1" parent="1" source="GgLwPMv9YuK2Pm7wXXBy-36">
          <mxGeometry width="50" height="50" relative="1" as="geometry">
            <mxPoint x="2530" y="-2020" as="sourcePoint" />
            <mxPoint x="2570" y="-2150" as="targetPoint" />
          </mxGeometry>
        </mxCell>
        <mxCell id="rPpRlWSM9VwXYQuEdTf5-195" value="" style="verticalLabelPosition=bottom;shadow=0;dashed=0;align=center;html=1;verticalAlign=top;shape=mxgraph.electrical.transmission.2_line_bus;rotation=0;" vertex="1" parent="1">
          <mxGeometry x="2610" y="-2157.5" width="115" height="15" as="geometry" />
        </mxCell>
        <mxCell id="rPpRlWSM9VwXYQuEdTf5-190" value="" style="verticalLabelPosition=bottom;shadow=0;dashed=0;align=center;html=1;verticalAlign=top;shape=mxgraph.electrical.transmission.2_line_bus;rotation=-180;" vertex="1" parent="1">
          <mxGeometry x="2800" y="-1850" width="170" height="15" as="geometry" />
        </mxCell>
        <mxCell id="rPpRlWSM9VwXYQuEdTf5-177" value="" style="endArrow=none;html=1;rounded=0;entryX=0.149;entryY=0.576;entryDx=0;entryDy=0;entryPerimeter=0;exitX=1;exitY=0.664;exitDx=0;exitDy=0;exitPerimeter=0;" edge="1" parent="1" source="rPpRlWSM9VwXYQuEdTf5-132" target="rPpRlWSM9VwXYQuEdTf5-176">
          <mxGeometry width="50" height="50" relative="1" as="geometry">
            <mxPoint x="2370" y="-1820" as="sourcePoint" />
            <mxPoint x="2420" y="-1870" as="targetPoint" />
          </mxGeometry>
        </mxCell>
        <mxCell id="rPpRlWSM9VwXYQuEdTf5-175" value="" style="endArrow=none;html=1;rounded=0;" edge="1" parent="1">
          <mxGeometry width="50" height="50" relative="1" as="geometry">
            <mxPoint x="2500" y="-1760" as="sourcePoint" />
            <mxPoint x="2550" y="-1810" as="targetPoint" />
          </mxGeometry>
        </mxCell>
        <mxCell id="rPpRlWSM9VwXYQuEdTf5-168" value="" style="verticalLabelPosition=bottom;shadow=0;dashed=0;align=center;html=1;verticalAlign=top;shape=mxgraph.electrical.transmission.2_line_bus;rotation=60;" vertex="1" parent="1">
          <mxGeometry x="2460" y="-1900" width="105" height="15" as="geometry" />
        </mxCell>
        <mxCell id="rPpRlWSM9VwXYQuEdTf5-172" value="" style="rounded=0;whiteSpace=wrap;html=1;" vertex="1" parent="1">
          <mxGeometry x="2490" y="-1862.5" width="120" height="62.5" as="geometry" />
        </mxCell>
        <mxCell id="rPpRlWSM9VwXYQuEdTf5-164" value="" style="endArrow=none;html=1;rounded=0;entryX=0.875;entryY=0.996;entryDx=0;entryDy=0;entryPerimeter=0;" edge="1" parent="1" target="GgLwPMv9YuK2Pm7wXXBy-36">
          <mxGeometry width="50" height="50" relative="1" as="geometry">
            <mxPoint x="2470" y="-1950" as="sourcePoint" />
            <mxPoint x="2420" y="-1960" as="targetPoint" />
          </mxGeometry>
        </mxCell>
        <mxCell id="rPpRlWSM9VwXYQuEdTf5-165" value="" style="rhombus;whiteSpace=wrap;html=1;" vertex="1" parent="1">
          <mxGeometry x="2440" y="-1987.5" width="80" height="80" as="geometry" />
        </mxCell>
        <mxCell id="rPpRlWSM9VwXYQuEdTf5-171" value="" style="rhombus;whiteSpace=wrap;html=1;" vertex="1" parent="1">
          <mxGeometry x="2445" y="-1981.25" width="70" height="67.5" as="geometry" />
        </mxCell>
        <mxCell id="rPpRlWSM9VwXYQuEdTf5-158" value="" style="endArrow=none;html=1;rounded=0;exitX=0.901;exitY=0.099;exitDx=0;exitDy=0;exitPerimeter=0;" edge="1" parent="1" source="rPpRlWSM9VwXYQuEdTf5-64" target="rPpRlWSM9VwXYQuEdTf5-157">
          <mxGeometry width="50" height="50" relative="1" as="geometry">
            <mxPoint x="2080" y="-1610" as="sourcePoint" />
            <mxPoint x="2130" y="-1660" as="targetPoint" />
          </mxGeometry>
        </mxCell>
        <mxCell id="rPpRlWSM9VwXYQuEdTf5-156" value="" style="verticalLabelPosition=bottom;shadow=0;dashed=0;align=center;html=1;verticalAlign=top;shape=mxgraph.electrical.transmission.2_line_bus;rotation=90;" vertex="1" parent="1">
          <mxGeometry x="2206.81" y="-1867.5" width="65.46" height="15" as="geometry" />
        </mxCell>
        <mxCell id="rPpRlWSM9VwXYQuEdTf5-125" value="" style="verticalLabelPosition=bottom;shadow=0;dashed=0;align=center;html=1;verticalAlign=top;shape=mxgraph.electrical.transmission.2_line_bus;rotation=90;" vertex="1" parent="1">
          <mxGeometry x="2300" y="-1837.5" width="150" height="15" as="geometry" />
        </mxCell>
        <mxCell id="rPpRlWSM9VwXYQuEdTf5-132" value="" style="rounded=0;whiteSpace=wrap;html=1;" vertex="1" parent="1">
          <mxGeometry x="2322.5" y="-1790" width="105" height="60" as="geometry" />
        </mxCell>
        <mxCell id="rPpRlWSM9VwXYQuEdTf5-103" value="" style="verticalLabelPosition=bottom;shadow=0;dashed=0;align=center;html=1;verticalAlign=top;shape=mxgraph.electrical.transmission.2_line_bus;rotation=-75;" vertex="1" parent="1">
          <mxGeometry x="2241" y="-2197.5" width="100" height="15" as="geometry" />
        </mxCell>
        <mxCell id="rPpRlWSM9VwXYQuEdTf5-99" value="" style="endArrow=none;html=1;rounded=0;entryX=0;entryY=1;entryDx=0;entryDy=0;exitX=1;exitY=0;exitDx=0;exitDy=0;" edge="1" parent="1" source="rPpRlWSM9VwXYQuEdTf5-52" target="rPpRlWSM9VwXYQuEdTf5-98">
          <mxGeometry width="50" height="50" relative="1" as="geometry">
            <mxPoint x="2030" y="-1852.5" as="sourcePoint" />
            <mxPoint x="2080" y="-1902.5" as="targetPoint" />
          </mxGeometry>
        </mxCell>
        <mxCell id="rPpRlWSM9VwXYQuEdTf5-91" value="" style="verticalLabelPosition=bottom;shadow=0;dashed=0;align=center;html=1;verticalAlign=top;shape=mxgraph.electrical.transmission.2_line_bus;rotation=-225;" vertex="1" parent="1">
          <mxGeometry x="1845" y="-1400" width="75" height="12.5" as="geometry" />
        </mxCell>
        <mxCell id="rPpRlWSM9VwXYQuEdTf5-83" value="" style="endArrow=none;html=1;rounded=0;" edge="1" parent="1">
          <mxGeometry width="50" height="50" relative="1" as="geometry">
            <mxPoint x="1760" y="-1430" as="sourcePoint" />
            <mxPoint x="1830" y="-1460" as="targetPoint" />
          </mxGeometry>
        </mxCell>
        <mxCell id="rPpRlWSM9VwXYQuEdTf5-81" value="" style="verticalLabelPosition=bottom;shadow=0;dashed=0;align=center;html=1;verticalAlign=top;shape=mxgraph.electrical.transmission.2_line_bus;rotation=-210;" vertex="1" parent="1">
          <mxGeometry x="1850" y="-1510" width="120" height="12.5" as="geometry" />
        </mxCell>
        <mxCell id="rPpRlWSM9VwXYQuEdTf5-78" value="" style="verticalLabelPosition=bottom;shadow=0;dashed=0;align=center;html=1;verticalAlign=top;shape=mxgraph.electrical.transmission.2_line_bus;rotation=45;" vertex="1" parent="1">
          <mxGeometry x="1775" y="-1695" width="110" height="15" as="geometry" />
        </mxCell>
        <mxCell id="rPpRlWSM9VwXYQuEdTf5-68" value="" style="endArrow=none;html=1;rounded=0;" edge="1" parent="1">
          <mxGeometry width="50" height="50" relative="1" as="geometry">
            <mxPoint x="1700" y="-1540" as="sourcePoint" />
            <mxPoint x="1805" y="-1540.43" as="targetPoint" />
          </mxGeometry>
        </mxCell>
        <mxCell id="rPpRlWSM9VwXYQuEdTf5-66" value="" style="verticalLabelPosition=bottom;shadow=0;dashed=0;align=center;html=1;verticalAlign=top;shape=mxgraph.electrical.transmission.2_line_bus;rotation=-180;" vertex="1" parent="1">
          <mxGeometry x="1830" y="-1546.25" width="120" height="12.5" as="geometry" />
        </mxCell>
        <mxCell id="rPpRlWSM9VwXYQuEdTf5-63" value="" style="verticalLabelPosition=bottom;shadow=0;dashed=0;align=center;html=1;verticalAlign=top;shape=mxgraph.electrical.transmission.2_line_bus;rotation=90;" vertex="1" parent="1">
          <mxGeometry x="1935" y="-1625" width="115" height="15" as="geometry" />
        </mxCell>
        <mxCell id="rPpRlWSM9VwXYQuEdTf5-61" value="" style="endArrow=none;html=1;rounded=0;entryX=0.313;entryY=1.022;entryDx=0;entryDy=0;entryPerimeter=0;exitX=0.25;exitY=1;exitDx=0;exitDy=0;" edge="1" parent="1" source="rPpRlWSM9VwXYQuEdTf5-59">
          <mxGeometry width="50" height="50" relative="1" as="geometry">
            <mxPoint x="1972" y="-1720" as="sourcePoint" />
            <mxPoint x="1990" y="-1830" as="targetPoint" />
          </mxGeometry>
        </mxCell>
        <mxCell id="rPpRlWSM9VwXYQuEdTf5-47" value="" style="endArrow=none;html=1;rounded=0;entryX=0.313;entryY=1.022;entryDx=0;entryDy=0;entryPerimeter=0;" edge="1" parent="1">
          <mxGeometry width="50" height="50" relative="1" as="geometry">
            <mxPoint x="1990" y="-1850" as="sourcePoint" />
            <mxPoint x="2008" y="-1960" as="targetPoint" />
          </mxGeometry>
        </mxCell>
        <mxCell id="rPpRlWSM9VwXYQuEdTf5-36" value="" style="verticalLabelPosition=bottom;shadow=0;dashed=0;align=center;html=1;verticalAlign=top;shape=mxgraph.electrical.transmission.2_line_bus;rotation=75;" vertex="1" parent="1">
          <mxGeometry x="1485.17" y="-1923.71" width="350" height="15" as="geometry" />
        </mxCell>
        <mxCell id="rPpRlWSM9VwXYQuEdTf5-15" value="" style="endArrow=none;html=1;rounded=0;" edge="1" parent="1">
          <mxGeometry width="50" height="50" relative="1" as="geometry">
            <mxPoint x="1720" y="-1750" as="sourcePoint" />
            <mxPoint x="1750" y="-1790" as="targetPoint" />
          </mxGeometry>
        </mxCell>
        <mxCell id="rPpRlWSM9VwXYQuEdTf5-17" value="" style="endArrow=none;html=1;rounded=0;" edge="1" parent="1">
          <mxGeometry width="50" height="50" relative="1" as="geometry">
            <mxPoint x="1780" y="-1750" as="sourcePoint" />
            <mxPoint x="1750" y="-1790" as="targetPoint" />
          </mxGeometry>
        </mxCell>
        <mxCell id="rPpRlWSM9VwXYQuEdTf5-10" value="" style="verticalLabelPosition=bottom;shadow=0;dashed=0;align=center;html=1;verticalAlign=top;shape=mxgraph.electrical.transmission.2_line_bus;rotation=90;" vertex="1" parent="1">
          <mxGeometry x="1687.5" y="-1877.5" width="125" height="15" as="geometry" />
        </mxCell>
        <mxCell id="rPpRlWSM9VwXYQuEdTf5-7" value="" style="verticalLabelPosition=bottom;shadow=0;dashed=0;align=center;html=1;verticalAlign=top;shape=mxgraph.electrical.transmission.2_line_bus;rotation=-210;" vertex="1" parent="1">
          <mxGeometry x="1796.83" y="-1991.83" width="120" height="15" as="geometry" />
        </mxCell>
        <mxCell id="GgLwPMv9YuK2Pm7wXXBy-57" value="" style="verticalLabelPosition=bottom;shadow=0;dashed=0;align=center;html=1;verticalAlign=top;shape=mxgraph.electrical.transmission.2_line_bus;rotation=0;" vertex="1" parent="1">
          <mxGeometry x="1852.5" y="-2396.4" width="120" height="15" as="geometry" />
        </mxCell>
        <mxCell id="GgLwPMv9YuK2Pm7wXXBy-54" value="" style="verticalLabelPosition=bottom;shadow=0;dashed=0;align=center;html=1;verticalAlign=top;shape=mxgraph.electrical.transmission.2_line_bus;rotation=90;" vertex="1" parent="1">
          <mxGeometry x="2127.5" y="-2307.5" width="125" height="15" as="geometry" />
        </mxCell>
        <mxCell id="GgLwPMv9YuK2Pm7wXXBy-28" value="" style="verticalLabelPosition=bottom;shadow=0;dashed=0;align=center;html=1;verticalAlign=top;shape=mxgraph.electrical.transmission.2_line_bus;rotation=0;" vertex="1" parent="1">
          <mxGeometry x="2010" y="-2400" width="130" height="15" as="geometry" />
        </mxCell>
        <mxCell id="GgLwPMv9YuK2Pm7wXXBy-26" value="" style="rounded=0;whiteSpace=wrap;html=1;" vertex="1" parent="1">
          <mxGeometry x="2130" y="-2420" width="120" height="60" as="geometry" />
        </mxCell>
        <mxCell id="GgLwPMv9YuK2Pm7wXXBy-27" value="USER" style="text;html=1;align=center;verticalAlign=middle;whiteSpace=wrap;rounded=0;" vertex="1" parent="1">
          <mxGeometry x="2160" y="-2405" width="60" height="30" as="geometry" />
        </mxCell>
        <mxCell id="GgLwPMv9YuK2Pm7wXXBy-29" value="" style="ellipse;whiteSpace=wrap;html=1;aspect=fixed;" vertex="1" parent="1">
          <mxGeometry x="2175" y="-2240" width="30" height="30" as="geometry" />
        </mxCell>
        <mxCell id="GgLwPMv9YuK2Pm7wXXBy-30" value="d" style="text;html=1;align=center;verticalAlign=middle;whiteSpace=wrap;rounded=0;" vertex="1" parent="1">
          <mxGeometry x="2161.85" y="-2240" width="60" height="30" as="geometry" />
        </mxCell>
        <mxCell id="GgLwPMv9YuK2Pm7wXXBy-31" value="" style="endArrow=none;html=1;rounded=0;entryX=0.417;entryY=0.962;entryDx=0;entryDy=0;entryPerimeter=0;" edge="1" parent="1" source="GgLwPMv9YuK2Pm7wXXBy-35" target="GgLwPMv9YuK2Pm7wXXBy-30">
          <mxGeometry width="50" height="50" relative="1" as="geometry">
            <mxPoint x="2130" y="-2160" as="sourcePoint" />
            <mxPoint x="2180" y="-2210" as="targetPoint" />
          </mxGeometry>
        </mxCell>
        <mxCell id="GgLwPMv9YuK2Pm7wXXBy-32" value="" style="endArrow=none;html=1;rounded=0;" edge="1" parent="1">
          <mxGeometry width="50" height="50" relative="1" as="geometry">
            <mxPoint x="2250" y="-2160" as="sourcePoint" />
            <mxPoint x="2196.153846153846" y="-2210" as="targetPoint" />
          </mxGeometry>
        </mxCell>
        <mxCell id="GgLwPMv9YuK2Pm7wXXBy-33" value="" style="verticalLabelPosition=bottom;verticalAlign=top;html=1;shape=mxgraph.basic.arc;startAngle=0.2658627587152768;endAngle=0.7531826745504864;rotation=135;" vertex="1" parent="1">
          <mxGeometry x="2205" y="-2210" width="15" height="30" as="geometry" />
        </mxCell>
        <mxCell id="GgLwPMv9YuK2Pm7wXXBy-34" value="" style="endArrow=none;html=1;rounded=0;entryX=0.417;entryY=0.962;entryDx=0;entryDy=0;entryPerimeter=0;" edge="1" parent="1" target="GgLwPMv9YuK2Pm7wXXBy-35">
          <mxGeometry width="50" height="50" relative="1" as="geometry">
            <mxPoint x="2130" y="-2160" as="sourcePoint" />
            <mxPoint x="2185" y="-2211" as="targetPoint" />
          </mxGeometry>
        </mxCell>
        <mxCell id="GgLwPMv9YuK2Pm7wXXBy-35" value="" style="verticalLabelPosition=bottom;verticalAlign=top;html=1;shape=mxgraph.basic.arc;startAngle=0.2658627587152768;endAngle=0.7531826745504864;rotation=-140;" vertex="1" parent="1">
          <mxGeometry x="2160" y="-2210" width="15" height="30" as="geometry" />
        </mxCell>
        <mxCell id="GgLwPMv9YuK2Pm7wXXBy-36" value="" style="rounded=0;whiteSpace=wrap;html=1;" vertex="1" parent="1">
          <mxGeometry x="2210" y="-2160" width="120" height="60" as="geometry" />
        </mxCell>
        <mxCell id="GgLwPMv9YuK2Pm7wXXBy-37" value="" style="rounded=0;whiteSpace=wrap;html=1;" vertex="1" parent="1">
          <mxGeometry x="2040" y="-2160" width="120" height="60" as="geometry" />
        </mxCell>
        <mxCell id="GgLwPMv9YuK2Pm7wXXBy-52" value="SELLER" style="text;html=1;align=center;verticalAlign=middle;whiteSpace=wrap;rounded=0;" vertex="1" parent="1">
          <mxGeometry x="2070" y="-2150" width="60" height="30" as="geometry" />
        </mxCell>
        <mxCell id="GgLwPMv9YuK2Pm7wXXBy-53" value="BUYER" style="text;html=1;align=center;verticalAlign=middle;whiteSpace=wrap;rounded=0;" vertex="1" parent="1">
          <mxGeometry x="2240" y="-2145" width="60" height="30" as="geometry" />
        </mxCell>
        <mxCell id="GgLwPMv9YuK2Pm7wXXBy-55" value="" style="shape=rhombus;html=1;dashed=0;whiteSpace=wrap;perimeter=rhombusPerimeter;rotation=-15;" vertex="1" parent="1">
          <mxGeometry x="1950.32" y="-2428.9" width="80" height="80" as="geometry" />
        </mxCell>
        <mxCell id="GgLwPMv9YuK2Pm7wXXBy-58" value="" style="shape=rhombus;html=1;dashed=0;whiteSpace=wrap;perimeter=rhombusPerimeter;rotation=-15;" vertex="1" parent="1">
          <mxGeometry x="1960.32" y="-2418.9" width="60" height="60" as="geometry" />
        </mxCell>
        <mxCell id="GgLwPMv9YuK2Pm7wXXBy-59" value="belongs_to" style="text;html=1;align=center;verticalAlign=middle;whiteSpace=wrap;rounded=0;rotation=-15;" vertex="1" parent="1">
          <mxGeometry x="1969.9999999999998" y="-2400" width="39.35" height="19.94" as="geometry" />
        </mxCell>
        <mxCell id="GgLwPMv9YuK2Pm7wXXBy-60" value="" style="html=1;dashed=0;whiteSpace=wrap;" vertex="1" parent="1">
          <mxGeometry x="1730" y="-2420" width="150" height="56.1" as="geometry" />
        </mxCell>
        <mxCell id="GgLwPMv9YuK2Pm7wXXBy-61" value="" style="html=1;dashed=0;whiteSpace=wrap;" vertex="1" parent="1">
          <mxGeometry x="1740" y="-2410" width="130" height="36.1" as="geometry" />
        </mxCell>
        <mxCell id="GgLwPMv9YuK2Pm7wXXBy-62" value="&lt;font style=&quot;font-size: 10px;&quot;&gt;NOTIFICATION_PREFERENCE&lt;/font&gt;" style="text;html=1;align=center;verticalAlign=middle;whiteSpace=wrap;rounded=0;" vertex="1" parent="1">
          <mxGeometry x="1780" y="-2396.4" width="60" height="10" as="geometry" />
        </mxCell>
        <mxCell id="rPpRlWSM9VwXYQuEdTf5-1" value="" style="endArrow=none;html=1;rounded=0;entryX=0;entryY=0.75;entryDx=0;entryDy=0;" edge="1" parent="1" target="GgLwPMv9YuK2Pm7wXXBy-36">
          <mxGeometry width="50" height="50" relative="1" as="geometry">
            <mxPoint x="1950" y="-2030" as="sourcePoint" />
            <mxPoint x="2070" y="-2100" as="targetPoint" />
          </mxGeometry>
        </mxCell>
        <mxCell id="rPpRlWSM9VwXYQuEdTf5-2" value="" style="rhombus;whiteSpace=wrap;html=1;" vertex="1" parent="1">
          <mxGeometry x="1890" y="-2060" width="80" height="80" as="geometry" />
        </mxCell>
        <mxCell id="rPpRlWSM9VwXYQuEdTf5-3" value="" style="endArrow=none;html=1;rounded=0;" edge="1" parent="1" target="rPpRlWSM9VwXYQuEdTf5-4">
          <mxGeometry width="50" height="50" relative="1" as="geometry">
            <mxPoint x="1780" y="-1940" as="sourcePoint" />
            <mxPoint x="1900" y="-2010" as="targetPoint" />
          </mxGeometry>
        </mxCell>
        <mxCell id="rPpRlWSM9VwXYQuEdTf5-4" value="" style="rounded=0;whiteSpace=wrap;html=1;" vertex="1" parent="1">
          <mxGeometry x="1690.0000000000005" y="-1980" width="120" height="60" as="geometry" />
        </mxCell>
        <mxCell id="rPpRlWSM9VwXYQuEdTf5-8" value="gives" style="text;html=1;align=center;verticalAlign=middle;whiteSpace=wrap;rounded=0;" vertex="1" parent="1">
          <mxGeometry x="1900" y="-2035" width="60" height="30" as="geometry" />
        </mxCell>
        <mxCell id="rPpRlWSM9VwXYQuEdTf5-9" value="REVIEW" style="text;html=1;align=center;verticalAlign=middle;whiteSpace=wrap;rounded=0;" vertex="1" parent="1">
          <mxGeometry x="1720" y="-1965" width="60" height="30" as="geometry" />
        </mxCell>
        <mxCell id="rPpRlWSM9VwXYQuEdTf5-12" value="" style="ellipse;whiteSpace=wrap;html=1;aspect=fixed;" vertex="1" parent="1">
          <mxGeometry x="1735" y="-1810" width="30" height="30" as="geometry" />
        </mxCell>
        <mxCell id="rPpRlWSM9VwXYQuEdTf5-14" value="d" style="text;html=1;align=center;verticalAlign=middle;whiteSpace=wrap;rounded=0;" vertex="1" parent="1">
          <mxGeometry x="1720" y="-1810" width="60" height="30" as="geometry" />
        </mxCell>
        <mxCell id="rPpRlWSM9VwXYQuEdTf5-18" value="" style="verticalLabelPosition=bottom;verticalAlign=top;html=1;shape=mxgraph.basic.arc;startAngle=0.2658627587152768;endAngle=0.7531826745504864;rotation=-140;" vertex="1" parent="1">
          <mxGeometry x="1720" y="-1780" width="15" height="30" as="geometry" />
        </mxCell>
        <mxCell id="rPpRlWSM9VwXYQuEdTf5-19" value="" style="verticalLabelPosition=bottom;verticalAlign=top;html=1;shape=mxgraph.basic.arc;startAngle=0.2658627587152768;endAngle=0.7531826745504864;rotation=135;" vertex="1" parent="1">
          <mxGeometry x="1765" y="-1780" width="15" height="30" as="geometry" />
        </mxCell>
        <mxCell id="rPpRlWSM9VwXYQuEdTf5-24" value="" style="rounded=0;whiteSpace=wrap;html=1;" vertex="1" parent="1">
          <mxGeometry x="1685" y="-1750" width="60" height="30" as="geometry" />
        </mxCell>
        <mxCell id="rPpRlWSM9VwXYQuEdTf5-25" value="" style="rounded=0;whiteSpace=wrap;html=1;" vertex="1" parent="1">
          <mxGeometry x="1755" y="-1750" width="60" height="30" as="geometry" />
        </mxCell>
        <mxCell id="rPpRlWSM9VwXYQuEdTf5-26" value="&lt;font style=&quot;font-size: 11px;&quot;&gt;SELLER-R&lt;/font&gt;" style="text;html=1;align=center;verticalAlign=middle;whiteSpace=wrap;rounded=0;" vertex="1" parent="1">
          <mxGeometry x="1685" y="-1750" width="60" height="30" as="geometry" />
        </mxCell>
        <mxCell id="rPpRlWSM9VwXYQuEdTf5-27" value="&lt;font style=&quot;font-size: 9px;&quot;&gt;PRODUCT-R&lt;/font&gt;" style="text;html=1;align=center;verticalAlign=middle;whiteSpace=wrap;rounded=0;" vertex="1" parent="1">
          <mxGeometry x="1755" y="-1750" width="60" height="30" as="geometry" />
        </mxCell>
        <mxCell id="rPpRlWSM9VwXYQuEdTf5-32" value="" style="endArrow=none;html=1;rounded=0;" edge="1" parent="1" source="rPpRlWSM9VwXYQuEdTf5-35">
          <mxGeometry width="50" height="50" relative="1" as="geometry">
            <mxPoint x="1670" y="-2110" as="sourcePoint" />
            <mxPoint x="2040" y="-2130" as="targetPoint" />
          </mxGeometry>
        </mxCell>
        <mxCell id="rPpRlWSM9VwXYQuEdTf5-33" value="" style="rhombus;whiteSpace=wrap;html=1;" vertex="1" parent="1">
          <mxGeometry x="1570" y="-2150" width="80" height="80" as="geometry" />
        </mxCell>
        <mxCell id="rPpRlWSM9VwXYQuEdTf5-35" value="belongs_to" style="text;html=1;align=center;verticalAlign=middle;whiteSpace=wrap;rounded=0;" vertex="1" parent="1">
          <mxGeometry x="1580" y="-2125" width="60" height="30" as="geometry" />
        </mxCell>
        <mxCell id="rPpRlWSM9VwXYQuEdTf5-37" value="&lt;b&gt;&lt;font style=&quot;font-size: 15px;&quot;&gt;N&lt;/font&gt;&lt;/b&gt;" style="text;html=1;align=center;verticalAlign=middle;whiteSpace=wrap;rounded=0;" vertex="1" parent="1">
          <mxGeometry x="1570" y="-2085" width="70" height="50" as="geometry" />
        </mxCell>
        <mxCell id="rPpRlWSM9VwXYQuEdTf5-38" value="&lt;b&gt;&lt;font style=&quot;font-size: 15px;&quot;&gt;1&lt;/font&gt;&lt;/b&gt;" style="text;html=1;align=center;verticalAlign=middle;whiteSpace=wrap;rounded=0;" vertex="1" parent="1">
          <mxGeometry x="1620" y="-2150" width="70" height="50" as="geometry" />
        </mxCell>
        <mxCell id="rPpRlWSM9VwXYQuEdTf5-39" value="&lt;b&gt;&lt;font style=&quot;font-size: 15px;&quot;&gt;N&lt;/font&gt;&lt;/b&gt;" style="text;html=1;align=center;verticalAlign=middle;whiteSpace=wrap;rounded=0;" vertex="1" parent="1">
          <mxGeometry x="1860" y="-2030" width="70" height="50" as="geometry" />
        </mxCell>
        <mxCell id="rPpRlWSM9VwXYQuEdTf5-42" value="&lt;b&gt;&lt;font style=&quot;font-size: 15px;&quot;&gt;1&lt;/font&gt;&lt;/b&gt;" style="text;html=1;align=center;verticalAlign=middle;whiteSpace=wrap;rounded=0;" vertex="1" parent="1">
          <mxGeometry x="1920" y="-2070" width="70" height="50" as="geometry" />
        </mxCell>
        <mxCell id="rPpRlWSM9VwXYQuEdTf5-43" value="&lt;b&gt;&lt;font style=&quot;font-size: 15px;&quot;&gt;1&lt;/font&gt;&lt;/b&gt;" style="text;html=1;align=center;verticalAlign=middle;whiteSpace=wrap;rounded=0;" vertex="1" parent="1">
          <mxGeometry x="1910" y="-2393.9" width="70" height="50" as="geometry" />
        </mxCell>
        <mxCell id="rPpRlWSM9VwXYQuEdTf5-44" value="&lt;b&gt;&lt;font style=&quot;font-size: 15px;&quot;&gt;1&lt;/font&gt;&lt;/b&gt;" style="text;html=1;align=center;verticalAlign=middle;whiteSpace=wrap;rounded=0;" vertex="1" parent="1">
          <mxGeometry x="1969.9999999999998" y="-2450" width="70" height="50" as="geometry" />
        </mxCell>
        <mxCell id="rPpRlWSM9VwXYQuEdTf5-45" value="" style="endArrow=none;html=1;rounded=0;entryX=0.313;entryY=1.022;entryDx=0;entryDy=0;entryPerimeter=0;" edge="1" parent="1" target="GgLwPMv9YuK2Pm7wXXBy-37">
          <mxGeometry width="50" height="50" relative="1" as="geometry">
            <mxPoint x="2020" y="-1990" as="sourcePoint" />
            <mxPoint x="2080" y="-2090" as="targetPoint" />
          </mxGeometry>
        </mxCell>
        <mxCell id="rPpRlWSM9VwXYQuEdTf5-46" value="" style="rhombus;whiteSpace=wrap;html=1;" vertex="1" parent="1">
          <mxGeometry x="1970" y="-2020" width="80" height="80" as="geometry" />
        </mxCell>
        <mxCell id="rPpRlWSM9VwXYQuEdTf5-48" value="" style="rounded=0;whiteSpace=wrap;html=1;" vertex="1" parent="1">
          <mxGeometry x="1950" y="-1855" width="80" height="40" as="geometry" />
        </mxCell>
        <mxCell id="rPpRlWSM9VwXYQuEdTf5-50" value="" style="rhombus;whiteSpace=wrap;html=1;" vertex="1" parent="1">
          <mxGeometry x="1980" y="-2010" width="60" height="60" as="geometry" />
        </mxCell>
        <mxCell id="rPpRlWSM9VwXYQuEdTf5-49" value="has" style="text;html=1;align=center;verticalAlign=middle;whiteSpace=wrap;rounded=0;" vertex="1" parent="1">
          <mxGeometry x="1980" y="-1995" width="60" height="30" as="geometry" />
        </mxCell>
        <mxCell id="rPpRlWSM9VwXYQuEdTf5-51" value="" style="rounded=0;whiteSpace=wrap;html=1;" vertex="1" parent="1">
          <mxGeometry x="1960" y="-1847.5" width="60" height="25" as="geometry" />
        </mxCell>
        <mxCell id="rPpRlWSM9VwXYQuEdTf5-52" value="STORE" style="text;html=1;align=center;verticalAlign=middle;whiteSpace=wrap;rounded=0;" vertex="1" parent="1">
          <mxGeometry x="1960" y="-1852.5" width="60" height="30" as="geometry" />
        </mxCell>
        <mxCell id="rPpRlWSM9VwXYQuEdTf5-53" value="&lt;b&gt;&lt;font style=&quot;font-size: 15px;&quot;&gt;1&lt;/font&gt;&lt;/b&gt;" style="text;html=1;align=center;verticalAlign=middle;whiteSpace=wrap;rounded=0;" vertex="1" parent="1">
          <mxGeometry x="1990" y="-2045" width="70" height="50" as="geometry" />
        </mxCell>
        <mxCell id="rPpRlWSM9VwXYQuEdTf5-54" value="&lt;b&gt;&lt;font style=&quot;font-size: 15px;&quot;&gt;1&lt;/font&gt;&lt;/b&gt;" style="text;html=1;align=center;verticalAlign=middle;whiteSpace=wrap;rounded=0;" vertex="1" parent="1">
          <mxGeometry x="1960" y="-1970" width="70" height="50" as="geometry" />
        </mxCell>
        <mxCell id="rPpRlWSM9VwXYQuEdTf5-56" value="" style="rhombus;whiteSpace=wrap;html=1;" vertex="1" parent="1">
          <mxGeometry x="1950" y="-1735" width="80" height="80" as="geometry" />
        </mxCell>
        <mxCell id="rPpRlWSM9VwXYQuEdTf5-58" value="has" style="text;html=1;align=center;verticalAlign=middle;whiteSpace=wrap;rounded=0;" vertex="1" parent="1">
          <mxGeometry x="1960" y="-1710" width="60" height="30" as="geometry" />
        </mxCell>
        <mxCell id="rPpRlWSM9VwXYQuEdTf5-59" value="&lt;b&gt;&lt;font style=&quot;font-size: 15px;&quot;&gt;N&lt;/font&gt;&lt;/b&gt;" style="text;html=1;align=center;verticalAlign=middle;whiteSpace=wrap;rounded=0;" vertex="1" parent="1">
          <mxGeometry x="1970" y="-1760" width="70" height="50" as="geometry" />
        </mxCell>
        <mxCell id="rPpRlWSM9VwXYQuEdTf5-60" value="&lt;b&gt;&lt;font style=&quot;font-size: 15px;&quot;&gt;M&lt;/font&gt;&lt;/b&gt;" style="text;html=1;align=center;verticalAlign=middle;whiteSpace=wrap;rounded=0;" vertex="1" parent="1">
          <mxGeometry x="1930" y="-1685" width="70" height="50" as="geometry" />
        </mxCell>
        <mxCell id="rPpRlWSM9VwXYQuEdTf5-64" value="" style="rounded=0;whiteSpace=wrap;html=1;" vertex="1" parent="1">
          <mxGeometry x="1945" y="-1560" width="90" height="40" as="geometry" />
        </mxCell>
        <mxCell id="rPpRlWSM9VwXYQuEdTf5-65" value="PRODUCT" style="text;html=1;align=center;verticalAlign=middle;whiteSpace=wrap;rounded=0;" vertex="1" parent="1">
          <mxGeometry x="1960" y="-1555" width="60" height="30" as="geometry" />
        </mxCell>
        <mxCell id="rPpRlWSM9VwXYQuEdTf5-67" value="" style="rhombus;whiteSpace=wrap;html=1;" vertex="1" parent="1">
          <mxGeometry x="1790" y="-1580" width="80" height="80" as="geometry" />
        </mxCell>
        <mxCell id="rPpRlWSM9VwXYQuEdTf5-69" value="" style="rounded=0;whiteSpace=wrap;html=1;" vertex="1" parent="1">
          <mxGeometry x="1625" y="-1570" width="120" height="60" as="geometry" />
        </mxCell>
        <mxCell id="rPpRlWSM9VwXYQuEdTf5-70" value="BRAND" style="text;html=1;align=center;verticalAlign=middle;whiteSpace=wrap;rounded=0;" vertex="1" parent="1">
          <mxGeometry x="1655" y="-1557.5" width="60" height="30" as="geometry" />
        </mxCell>
        <mxCell id="rPpRlWSM9VwXYQuEdTf5-71" value="belongs_to" style="text;html=1;align=center;verticalAlign=middle;whiteSpace=wrap;rounded=0;" vertex="1" parent="1">
          <mxGeometry x="1800" y="-1555" width="60" height="30" as="geometry" />
        </mxCell>
        <mxCell id="rPpRlWSM9VwXYQuEdTf5-72" value="&lt;b&gt;&lt;font style=&quot;font-size: 15px;&quot;&gt;1&lt;/font&gt;&lt;/b&gt;" style="text;html=1;align=center;verticalAlign=middle;whiteSpace=wrap;rounded=0;" vertex="1" parent="1">
          <mxGeometry x="1750" y="-1550" width="70" height="50" as="geometry" />
        </mxCell>
        <mxCell id="rPpRlWSM9VwXYQuEdTf5-73" value="&lt;span style=&quot;font-size: 15px;&quot;&gt;&lt;b&gt;N&lt;/b&gt;&lt;/span&gt;" style="text;html=1;align=center;verticalAlign=middle;whiteSpace=wrap;rounded=0;" vertex="1" parent="1">
          <mxGeometry x="1830" y="-1590" width="70" height="50" as="geometry" />
        </mxCell>
        <mxCell id="rPpRlWSM9VwXYQuEdTf5-74" value="" style="endArrow=none;html=1;rounded=0;exitX=0;exitY=0;exitDx=0;exitDy=0;" edge="1" parent="1" source="rPpRlWSM9VwXYQuEdTf5-64" target="rPpRlWSM9VwXYQuEdTf5-75">
          <mxGeometry width="50" height="50" relative="1" as="geometry">
            <mxPoint x="1830" y="-1630" as="sourcePoint" />
            <mxPoint x="1890" y="-1630" as="targetPoint" />
          </mxGeometry>
        </mxCell>
        <mxCell id="rPpRlWSM9VwXYQuEdTf5-75" value="" style="rhombus;whiteSpace=wrap;html=1;" vertex="1" parent="1">
          <mxGeometry x="1840" y="-1680" width="80" height="80" as="geometry" />
        </mxCell>
        <mxCell id="rPpRlWSM9VwXYQuEdTf5-77" value="has" style="text;html=1;align=center;verticalAlign=middle;whiteSpace=wrap;rounded=0;" vertex="1" parent="1">
          <mxGeometry x="1850" y="-1655" width="60" height="30" as="geometry" />
        </mxCell>
        <mxCell id="rPpRlWSM9VwXYQuEdTf5-79" value="&lt;b&gt;&lt;font style=&quot;font-size: 15px;&quot;&gt;1&lt;/font&gt;&lt;/b&gt;" style="text;html=1;align=center;verticalAlign=middle;whiteSpace=wrap;rounded=0;" vertex="1" parent="1">
          <mxGeometry x="1800" y="-1680" width="70" height="50" as="geometry" />
        </mxCell>
        <mxCell id="rPpRlWSM9VwXYQuEdTf5-80" value="&lt;b&gt;&lt;font style=&quot;font-size: 15px;&quot;&gt;1&lt;/font&gt;&lt;/b&gt;" style="text;html=1;align=center;verticalAlign=middle;whiteSpace=wrap;rounded=0;" vertex="1" parent="1">
          <mxGeometry x="1880" y="-1642.5" width="70" height="50" as="geometry" />
        </mxCell>
        <mxCell id="rPpRlWSM9VwXYQuEdTf5-82" value="" style="rhombus;whiteSpace=wrap;html=1;" vertex="1" parent="1">
          <mxGeometry x="1812.5" y="-1510" width="80" height="80" as="geometry" />
        </mxCell>
        <mxCell id="rPpRlWSM9VwXYQuEdTf5-84" value="" style="rounded=0;whiteSpace=wrap;html=1;" vertex="1" parent="1">
          <mxGeometry x="1645" y="-1460" width="120" height="60" as="geometry" />
        </mxCell>
        <mxCell id="rPpRlWSM9VwXYQuEdTf5-85" value="&lt;span style=&quot;font-size: 15px;&quot;&gt;&lt;b&gt;N&lt;/b&gt;&lt;/span&gt;" style="text;html=1;align=center;verticalAlign=middle;whiteSpace=wrap;rounded=0;" vertex="1" parent="1">
          <mxGeometry x="1840" y="-1525" width="70" height="50" as="geometry" />
        </mxCell>
        <mxCell id="rPpRlWSM9VwXYQuEdTf5-86" value="&lt;span style=&quot;font-size: 15px;&quot;&gt;&lt;b&gt;M&lt;/b&gt;&lt;/span&gt;" style="text;html=1;align=center;verticalAlign=middle;whiteSpace=wrap;rounded=0;" vertex="1" parent="1">
          <mxGeometry x="1790" y="-1470" width="70" height="50" as="geometry" />
        </mxCell>
        <mxCell id="rPpRlWSM9VwXYQuEdTf5-87" value="CATEGORY" style="text;html=1;align=center;verticalAlign=middle;whiteSpace=wrap;rounded=0;" vertex="1" parent="1">
          <mxGeometry x="1675" y="-1445" width="60" height="30" as="geometry" />
        </mxCell>
        <mxCell id="rPpRlWSM9VwXYQuEdTf5-88" value="&lt;font style=&quot;font-size: 10px;&quot;&gt;categorized_as&lt;/font&gt;" style="text;html=1;align=center;verticalAlign=middle;whiteSpace=wrap;rounded=0;" vertex="1" parent="1">
          <mxGeometry x="1822.5" y="-1485" width="60" height="30" as="geometry" />
        </mxCell>
        <mxCell id="rPpRlWSM9VwXYQuEdTf5-89" value="" style="endArrow=none;html=1;rounded=0;exitX=0.25;exitY=1;exitDx=0;exitDy=0;" edge="1" parent="1" source="rPpRlWSM9VwXYQuEdTf5-64" target="rPpRlWSM9VwXYQuEdTf5-90">
          <mxGeometry width="50" height="50" relative="1" as="geometry">
            <mxPoint x="1940" y="-1460" as="sourcePoint" />
            <mxPoint x="1980" y="-1520" as="targetPoint" />
          </mxGeometry>
        </mxCell>
        <mxCell id="rPpRlWSM9VwXYQuEdTf5-90" value="" style="rhombus;whiteSpace=wrap;html=1;" vertex="1" parent="1">
          <mxGeometry x="1880" y="-1470" width="80" height="80" as="geometry" />
        </mxCell>
        <mxCell id="rPpRlWSM9VwXYQuEdTf5-92" value="" style="rounded=0;whiteSpace=wrap;html=1;" vertex="1" parent="1">
          <mxGeometry x="1780" y="-1380" width="90" height="40" as="geometry" />
        </mxCell>
        <mxCell id="rPpRlWSM9VwXYQuEdTf5-93" value="DISCOUNT" style="text;html=1;align=center;verticalAlign=middle;whiteSpace=wrap;rounded=0;" vertex="1" parent="1">
          <mxGeometry x="1795" y="-1375" width="60" height="30" as="geometry" />
        </mxCell>
        <mxCell id="rPpRlWSM9VwXYQuEdTf5-94" value="has" style="text;html=1;align=center;verticalAlign=middle;whiteSpace=wrap;rounded=0;" vertex="1" parent="1">
          <mxGeometry x="1890" y="-1445" width="60" height="30" as="geometry" />
        </mxCell>
        <mxCell id="rPpRlWSM9VwXYQuEdTf5-95" value="&lt;span style=&quot;font-size: 15px;&quot;&gt;&lt;b&gt;1&lt;/b&gt;&lt;/span&gt;" style="text;html=1;align=center;verticalAlign=middle;whiteSpace=wrap;rounded=0;" vertex="1" parent="1">
          <mxGeometry x="1900" y="-1495" width="70" height="50" as="geometry" />
        </mxCell>
        <mxCell id="rPpRlWSM9VwXYQuEdTf5-96" value="&lt;span style=&quot;font-size: 15px;&quot;&gt;&lt;b&gt;N&lt;/b&gt;&lt;/span&gt;" style="text;html=1;align=center;verticalAlign=middle;whiteSpace=wrap;rounded=0;" vertex="1" parent="1">
          <mxGeometry x="1870" y="-1418.75" width="70" height="50" as="geometry" />
        </mxCell>
        <mxCell id="rPpRlWSM9VwXYQuEdTf5-97" value="" style="endArrow=none;html=1;rounded=0;exitX=0.404;exitY=1.021;exitDx=0;exitDy=0;exitPerimeter=0;" edge="1" parent="1" source="GgLwPMv9YuK2Pm7wXXBy-36" target="rPpRlWSM9VwXYQuEdTf5-98">
          <mxGeometry width="50" height="50" relative="1" as="geometry">
            <mxPoint x="2190" y="-2030" as="sourcePoint" />
            <mxPoint x="2246.29" y="-2100" as="targetPoint" />
          </mxGeometry>
        </mxCell>
        <mxCell id="rPpRlWSM9VwXYQuEdTf5-98" value="" style="rhombus;whiteSpace=wrap;html=1;" vertex="1" parent="1">
          <mxGeometry x="2088.43" y="-1980" width="72.5" height="70" as="geometry" />
        </mxCell>
        <mxCell id="rPpRlWSM9VwXYQuEdTf5-100" value="follows" style="text;html=1;align=center;verticalAlign=middle;whiteSpace=wrap;rounded=0;" vertex="1" parent="1">
          <mxGeometry x="2094.68" y="-1960" width="60" height="30" as="geometry" />
        </mxCell>
        <mxCell id="rPpRlWSM9VwXYQuEdTf5-101" value="&lt;b&gt;&lt;font style=&quot;font-size: 15px;&quot;&gt;M&lt;/font&gt;&lt;/b&gt;" style="text;html=1;align=center;verticalAlign=middle;whiteSpace=wrap;rounded=0;" vertex="1" parent="1">
          <mxGeometry x="2105" y="-2005" width="70" height="50" as="geometry" />
        </mxCell>
        <mxCell id="rPpRlWSM9VwXYQuEdTf5-102" value="&lt;b&gt;&lt;font style=&quot;font-size: 15px;&quot;&gt;N&lt;/font&gt;&lt;/b&gt;" style="text;html=1;align=center;verticalAlign=middle;whiteSpace=wrap;rounded=0;" vertex="1" parent="1">
          <mxGeometry x="2074.35" y="-1935" width="70" height="50" as="geometry" />
        </mxCell>
        <mxCell id="rPpRlWSM9VwXYQuEdTf5-107" value="" style="ellipse;whiteSpace=wrap;html=1;aspect=fixed;" vertex="1" parent="1">
          <mxGeometry x="2292.5" y="-2260" width="30" height="30" as="geometry" />
        </mxCell>
        <mxCell id="rPpRlWSM9VwXYQuEdTf5-108" value="d" style="text;html=1;align=center;verticalAlign=middle;whiteSpace=wrap;rounded=0;" vertex="1" parent="1">
          <mxGeometry x="2277.5" y="-2260" width="60" height="30" as="geometry" />
        </mxCell>
        <mxCell id="rPpRlWSM9VwXYQuEdTf5-111" value="" style="rounded=0;whiteSpace=wrap;html=1;" vertex="1" parent="1">
          <mxGeometry x="2287.5" y="-2305" width="50" height="20" as="geometry" />
        </mxCell>
        <mxCell id="rPpRlWSM9VwXYQuEdTf5-112" value="" style="rounded=0;whiteSpace=wrap;html=1;" vertex="1" parent="1">
          <mxGeometry x="2360" y="-2305" width="50" height="20" as="geometry" />
        </mxCell>
        <mxCell id="rPpRlWSM9VwXYQuEdTf5-119" value="" style="endArrow=none;html=1;rounded=0;" edge="1" parent="1" target="rPpRlWSM9VwXYQuEdTf5-120">
          <mxGeometry width="50" height="50" relative="1" as="geometry">
            <mxPoint x="2260" y="-2100" as="sourcePoint" />
            <mxPoint x="2260" y="-2100" as="targetPoint" />
          </mxGeometry>
        </mxCell>
        <mxCell id="rPpRlWSM9VwXYQuEdTf5-120" value="" style="rhombus;whiteSpace=wrap;html=1;" vertex="1" parent="1">
          <mxGeometry x="2008.43" y="-1826.25" width="80" height="80" as="geometry" />
        </mxCell>
        <mxCell id="rPpRlWSM9VwXYQuEdTf5-121" value="" style="endArrow=none;html=1;rounded=0;entryX=0.555;entryY=0.928;entryDx=0;entryDy=0;entryPerimeter=0;exitX=0.923;exitY=-0.012;exitDx=0;exitDy=0;exitPerimeter=0;" edge="1" parent="1" source="rPpRlWSM9VwXYQuEdTf5-64" target="rPpRlWSM9VwXYQuEdTf5-120">
          <mxGeometry width="50" height="50" relative="1" as="geometry">
            <mxPoint x="2210" y="-1680" as="sourcePoint" />
            <mxPoint x="2260" y="-1730" as="targetPoint" />
          </mxGeometry>
        </mxCell>
        <mxCell id="rPpRlWSM9VwXYQuEdTf5-122" value="favorites" style="text;html=1;align=center;verticalAlign=middle;whiteSpace=wrap;rounded=0;" vertex="1" parent="1">
          <mxGeometry x="2020.32" y="-1801.25" width="60" height="30" as="geometry" />
        </mxCell>
        <mxCell id="rPpRlWSM9VwXYQuEdTf5-123" value="&lt;b&gt;&lt;font style=&quot;font-size: 15px;&quot;&gt;M&lt;/font&gt;&lt;/b&gt;" style="text;html=1;align=center;verticalAlign=middle;whiteSpace=wrap;rounded=0;" vertex="1" parent="1">
          <mxGeometry x="2004.35" y="-1765" width="70" height="50" as="geometry" />
        </mxCell>
        <mxCell id="rPpRlWSM9VwXYQuEdTf5-126" value="" style="rhombus;whiteSpace=wrap;html=1;rotation=-15;" vertex="1" parent="1">
          <mxGeometry x="2330" y="-1940" width="80" height="80" as="geometry" />
        </mxCell>
        <mxCell id="rPpRlWSM9VwXYQuEdTf5-127" value="" style="rhombus;whiteSpace=wrap;html=1;rotation=-15;" vertex="1" parent="1">
          <mxGeometry x="2337.5" y="-1932.5" width="65" height="65" as="geometry" />
        </mxCell>
        <mxCell id="rPpRlWSM9VwXYQuEdTf5-128" value="" style="endArrow=none;html=1;rounded=0;entryX=0.75;entryY=1;entryDx=0;entryDy=0;exitX=0.5;exitY=0;exitDx=0;exitDy=0;" edge="1" parent="1" source="rPpRlWSM9VwXYQuEdTf5-126" target="GgLwPMv9YuK2Pm7wXXBy-36">
          <mxGeometry width="50" height="50" relative="1" as="geometry">
            <mxPoint x="2370" y="-1950" as="sourcePoint" />
            <mxPoint x="2420" y="-2000" as="targetPoint" />
          </mxGeometry>
        </mxCell>
        <mxCell id="rPpRlWSM9VwXYQuEdTf5-129" value="" style="rounded=0;whiteSpace=wrap;html=1;" vertex="1" parent="1">
          <mxGeometry x="2330" y="-1785" width="90" height="50" as="geometry" />
        </mxCell>
        <mxCell id="rPpRlWSM9VwXYQuEdTf5-130" value="CART" style="text;html=1;align=center;verticalAlign=middle;whiteSpace=wrap;rounded=0;" vertex="1" parent="1">
          <mxGeometry x="2345" y="-1775" width="60" height="30" as="geometry" />
        </mxCell>
        <mxCell id="rPpRlWSM9VwXYQuEdTf5-131" value="owns" style="text;html=1;align=center;verticalAlign=middle;whiteSpace=wrap;rounded=0;" vertex="1" parent="1">
          <mxGeometry x="2342.5" y="-1915" width="60" height="30" as="geometry" />
        </mxCell>
        <mxCell id="rPpRlWSM9VwXYQuEdTf5-133" value="&lt;b&gt;&lt;font style=&quot;font-size: 15px;&quot;&gt;1&lt;/font&gt;&lt;/b&gt;" style="text;html=1;align=center;verticalAlign=middle;whiteSpace=wrap;rounded=0;" vertex="1" parent="1">
          <mxGeometry x="2335" y="-1970" width="70" height="50" as="geometry" />
        </mxCell>
        <mxCell id="rPpRlWSM9VwXYQuEdTf5-134" value="&lt;b&gt;&lt;font style=&quot;font-size: 15px;&quot;&gt;1&lt;/font&gt;&lt;/b&gt;" style="text;html=1;align=center;verticalAlign=middle;whiteSpace=wrap;rounded=0;" vertex="1" parent="1">
          <mxGeometry x="2357.5" y="-1885" width="70" height="50" as="geometry" />
        </mxCell>
        <mxCell id="rPpRlWSM9VwXYQuEdTf5-135" value="" style="endArrow=none;html=1;rounded=0;exitX=1;exitY=0.25;exitDx=0;exitDy=0;" edge="1" parent="1" source="rPpRlWSM9VwXYQuEdTf5-64">
          <mxGeometry width="50" height="50" relative="1" as="geometry">
            <mxPoint x="2190" y="-1580" as="sourcePoint" />
            <mxPoint x="2110" y="-1580" as="targetPoint" />
          </mxGeometry>
        </mxCell>
        <mxCell id="rPpRlWSM9VwXYQuEdTf5-136" value="" style="rhombus;whiteSpace=wrap;html=1;" vertex="1" parent="1">
          <mxGeometry x="2105" y="-1623.75" width="80" height="80" as="geometry" />
        </mxCell>
        <mxCell id="rPpRlWSM9VwXYQuEdTf5-137" value="" style="endArrow=none;html=1;rounded=0;entryX=0;entryY=0.5;entryDx=0;entryDy=0;" edge="1" parent="1" source="rPpRlWSM9VwXYQuEdTf5-136" target="rPpRlWSM9VwXYQuEdTf5-319">
          <mxGeometry width="50" height="50" relative="1" as="geometry">
            <mxPoint x="2190" y="-1580" as="sourcePoint" />
            <mxPoint x="2210.33" y="-1630" as="targetPoint" />
          </mxGeometry>
        </mxCell>
        <mxCell id="rPpRlWSM9VwXYQuEdTf5-142" value="belongs_to" style="text;html=1;align=center;verticalAlign=middle;whiteSpace=wrap;rounded=0;" vertex="1" parent="1">
          <mxGeometry x="2115" y="-1600" width="60" height="30" as="geometry" />
        </mxCell>
        <mxCell id="rPpRlWSM9VwXYQuEdTf5-143" value="" style="endArrow=none;html=1;rounded=0;exitX=0.5;exitY=1;exitDx=0;exitDy=0;" edge="1" parent="1" source="rPpRlWSM9VwXYQuEdTf5-132" target="rPpRlWSM9VwXYQuEdTf5-144">
          <mxGeometry width="50" height="50" relative="1" as="geometry">
            <mxPoint x="2180" y="-1490" as="sourcePoint" />
            <mxPoint x="2370" y="-1730" as="targetPoint" />
            <Array as="points">
              <mxPoint x="2380" y="-1409" />
            </Array>
          </mxGeometry>
        </mxCell>
        <mxCell id="rPpRlWSM9VwXYQuEdTf5-144" value="" style="rhombus;whiteSpace=wrap;html=1;" vertex="1" parent="1">
          <mxGeometry x="2084.68" y="-1448.75" width="80" height="80" as="geometry" />
        </mxCell>
        <mxCell id="rPpRlWSM9VwXYQuEdTf5-145" value="" style="endArrow=none;html=1;rounded=0;exitX=1;exitY=0.5;exitDx=0;exitDy=0;" edge="1" parent="1" source="rPpRlWSM9VwXYQuEdTf5-92" target="rPpRlWSM9VwXYQuEdTf5-144">
          <mxGeometry width="50" height="50" relative="1" as="geometry">
            <mxPoint x="2080" y="-1435" as="sourcePoint" />
            <mxPoint x="2130" y="-1485" as="targetPoint" />
          </mxGeometry>
        </mxCell>
        <mxCell id="rPpRlWSM9VwXYQuEdTf5-146" value="has" style="text;html=1;align=center;verticalAlign=middle;whiteSpace=wrap;rounded=0;" vertex="1" parent="1">
          <mxGeometry x="2094.68" y="-1423.75" width="60" height="30" as="geometry" />
        </mxCell>
        <mxCell id="rPpRlWSM9VwXYQuEdTf5-148" value="" style="endArrow=none;html=1;rounded=0;exitX=0.5;exitY=1;exitDx=0;exitDy=0;" edge="1" parent="1" source="GgLwPMv9YuK2Pm7wXXBy-36" target="rPpRlWSM9VwXYQuEdTf5-149">
          <mxGeometry width="50" height="50" relative="1" as="geometry">
            <mxPoint x="2260" y="-1990" as="sourcePoint" />
            <mxPoint x="2280" y="-2100" as="targetPoint" />
          </mxGeometry>
        </mxCell>
        <mxCell id="rPpRlWSM9VwXYQuEdTf5-149" value="" style="rhombus;whiteSpace=wrap;html=1;" vertex="1" parent="1">
          <mxGeometry x="2224.35" y="-2026.83" width="75" height="66.83" as="geometry" />
        </mxCell>
        <mxCell id="rPpRlWSM9VwXYQuEdTf5-150" value="" style="endArrow=none;html=1;rounded=0;entryX=0.5;entryY=1;entryDx=0;entryDy=0;" edge="1" parent="1" target="rPpRlWSM9VwXYQuEdTf5-149">
          <mxGeometry width="50" height="50" relative="1" as="geometry">
            <mxPoint x="2240" y="-1900" as="sourcePoint" />
            <mxPoint x="2244.35" y="-1920" as="targetPoint" />
          </mxGeometry>
        </mxCell>
        <mxCell id="rPpRlWSM9VwXYQuEdTf5-151" value="" style="rounded=0;whiteSpace=wrap;html=1;" vertex="1" parent="1">
          <mxGeometry x="2205" y="-1910" width="69.07" height="32.5" as="geometry" />
        </mxCell>
        <mxCell id="rPpRlWSM9VwXYQuEdTf5-152" value="" style="rhombus;whiteSpace=wrap;html=1;" vertex="1" parent="1">
          <mxGeometry x="2229.02" y="-2021.83" width="65.65" height="56.83" as="geometry" />
        </mxCell>
        <mxCell id="rPpRlWSM9VwXYQuEdTf5-153" value="" style="rounded=0;whiteSpace=wrap;html=1;" vertex="1" parent="1">
          <mxGeometry x="2209.07" y="-1907.5" width="60.93" height="27.5" as="geometry" />
        </mxCell>
        <mxCell id="rPpRlWSM9VwXYQuEdTf5-154" value="has" style="text;html=1;align=center;verticalAlign=middle;whiteSpace=wrap;rounded=0;" vertex="1" parent="1">
          <mxGeometry x="2231.85" y="-2008.41" width="60" height="30" as="geometry" />
        </mxCell>
        <mxCell id="rPpRlWSM9VwXYQuEdTf5-155" value="HISTORY" style="text;html=1;align=center;verticalAlign=middle;whiteSpace=wrap;rounded=0;" vertex="1" parent="1">
          <mxGeometry x="2209.53" y="-1910" width="60" height="30" as="geometry" />
        </mxCell>
        <mxCell id="rPpRlWSM9VwXYQuEdTf5-157" value="" style="rhombus;whiteSpace=wrap;html=1;" vertex="1" parent="1">
          <mxGeometry x="2209.07" y="-1842.5" width="60" height="62.5" as="geometry" />
        </mxCell>
        <mxCell id="rPpRlWSM9VwXYQuEdTf5-159" value="&lt;b&gt;&lt;font style=&quot;font-size: 15px;&quot;&gt;1&lt;/font&gt;&lt;/b&gt;" style="text;html=1;align=center;verticalAlign=middle;whiteSpace=wrap;rounded=0;" vertex="1" parent="1">
          <mxGeometry x="2245" y="-2055" width="70" height="50" as="geometry" />
        </mxCell>
        <mxCell id="rPpRlWSM9VwXYQuEdTf5-160" value="&lt;b&gt;&lt;font style=&quot;font-size: 15px;&quot;&gt;1&lt;/font&gt;&lt;/b&gt;" style="text;html=1;align=center;verticalAlign=middle;whiteSpace=wrap;rounded=0;" vertex="1" parent="1">
          <mxGeometry x="2202.5" y="-1993.17" width="70" height="50" as="geometry" />
        </mxCell>
        <mxCell id="rPpRlWSM9VwXYQuEdTf5-161" value="shows" style="text;html=1;align=center;verticalAlign=middle;whiteSpace=wrap;rounded=0;" vertex="1" parent="1">
          <mxGeometry x="2209.07" y="-1826.25" width="60" height="30" as="geometry" />
        </mxCell>
        <mxCell id="rPpRlWSM9VwXYQuEdTf5-162" value="&lt;b&gt;&lt;font style=&quot;font-size: 15px;&quot;&gt;1&lt;/font&gt;&lt;/b&gt;" style="text;html=1;align=center;verticalAlign=middle;whiteSpace=wrap;rounded=0;" vertex="1" parent="1">
          <mxGeometry x="2221.85" y="-1862.5" width="70" height="50" as="geometry" />
        </mxCell>
        <mxCell id="rPpRlWSM9VwXYQuEdTf5-163" value="&lt;b&gt;&lt;font style=&quot;font-size: 15px;&quot;&gt;N&lt;/font&gt;&lt;/b&gt;" style="text;html=1;align=center;verticalAlign=middle;whiteSpace=wrap;rounded=0;" vertex="1" parent="1">
          <mxGeometry x="2175" y="-1820" width="70" height="50" as="geometry" />
        </mxCell>
        <mxCell id="rPpRlWSM9VwXYQuEdTf5-167" value="" style="rounded=0;whiteSpace=wrap;html=1;" vertex="1" parent="1">
          <mxGeometry x="2500" y="-1856.25" width="100" height="46.25" as="geometry" />
        </mxCell>
        <mxCell id="rPpRlWSM9VwXYQuEdTf5-169" value="places" style="text;html=1;align=center;verticalAlign=middle;whiteSpace=wrap;rounded=0;" vertex="1" parent="1">
          <mxGeometry x="2450" y="-1960" width="60" height="30" as="geometry" />
        </mxCell>
        <mxCell id="rPpRlWSM9VwXYQuEdTf5-170" value="ORDER" style="text;html=1;align=center;verticalAlign=middle;whiteSpace=wrap;rounded=0;" vertex="1" parent="1">
          <mxGeometry x="2520" y="-1850" width="60" height="30" as="geometry" />
        </mxCell>
        <mxCell id="rPpRlWSM9VwXYQuEdTf5-173" value="&lt;b&gt;&lt;font style=&quot;font-size: 15px;&quot;&gt;1&lt;/font&gt;&lt;/b&gt;" style="text;html=1;align=center;verticalAlign=middle;whiteSpace=wrap;rounded=0;" vertex="1" parent="1">
          <mxGeometry x="2425" y="-2008.41" width="70" height="50" as="geometry" />
        </mxCell>
        <mxCell id="rPpRlWSM9VwXYQuEdTf5-174" value="&lt;b&gt;&lt;font style=&quot;font-size: 15px;&quot;&gt;N&lt;/font&gt;&lt;/b&gt;" style="text;html=1;align=center;verticalAlign=middle;whiteSpace=wrap;rounded=0;" vertex="1" parent="1">
          <mxGeometry x="2477.5" y="-1950" width="70" height="50" as="geometry" />
        </mxCell>
        <mxCell id="rPpRlWSM9VwXYQuEdTf5-176" value="" style="rhombus;whiteSpace=wrap;html=1;" vertex="1" parent="1">
          <mxGeometry x="2452.5" y="-1765" width="80" height="80" as="geometry" />
        </mxCell>
        <mxCell id="rPpRlWSM9VwXYQuEdTf5-178" value="&lt;b&gt;&lt;font style=&quot;font-size: 15px;&quot;&gt;1&lt;/font&gt;&lt;/b&gt;" style="text;html=1;align=center;verticalAlign=middle;whiteSpace=wrap;rounded=0;" vertex="1" parent="1">
          <mxGeometry x="2485" y="-1780" width="70" height="50" as="geometry" />
        </mxCell>
        <mxCell id="rPpRlWSM9VwXYQuEdTf5-179" value="&lt;b&gt;&lt;font style=&quot;font-size: 15px;&quot;&gt;1&lt;/font&gt;&lt;/b&gt;" style="text;html=1;align=center;verticalAlign=middle;whiteSpace=wrap;rounded=0;" vertex="1" parent="1">
          <mxGeometry x="2415" y="-1740" width="70" height="50" as="geometry" />
        </mxCell>
        <mxCell id="rPpRlWSM9VwXYQuEdTf5-180" value="belongs_to" style="text;html=1;align=center;verticalAlign=middle;whiteSpace=wrap;rounded=0;" vertex="1" parent="1">
          <mxGeometry x="2470" y="-1740" width="60" height="30" as="geometry" />
        </mxCell>
        <mxCell id="rPpRlWSM9VwXYQuEdTf5-183" value="" style="rhombus;whiteSpace=wrap;html=1;" vertex="1" parent="1">
          <mxGeometry x="2510" y="-1622.5" width="80" height="80" as="geometry" />
        </mxCell>
        <mxCell id="rPpRlWSM9VwXYQuEdTf5-184" value="" style="endArrow=none;html=1;rounded=0;exitX=1;exitY=0.5;exitDx=0;exitDy=0;" edge="1" parent="1" source="rPpRlWSM9VwXYQuEdTf5-64" target="rPpRlWSM9VwXYQuEdTf5-183">
          <mxGeometry width="50" height="50" relative="1" as="geometry">
            <mxPoint x="2370" y="-1630" as="sourcePoint" />
            <mxPoint x="2420" y="-1680" as="targetPoint" />
            <Array as="points">
              <mxPoint x="2140" y="-1540" />
              <mxPoint x="2210" y="-1540" />
              <mxPoint x="2290" y="-1540" />
            </Array>
          </mxGeometry>
        </mxCell>
        <mxCell id="rPpRlWSM9VwXYQuEdTf5-186" value="" style="rhombus;whiteSpace=wrap;html=1;" vertex="1" parent="1">
          <mxGeometry x="2515" y="-1615" width="70" height="65" as="geometry" />
        </mxCell>
        <mxCell id="rPpRlWSM9VwXYQuEdTf5-187" value="&lt;b&gt;&lt;font style=&quot;font-size: 15px;&quot;&gt;M&lt;/font&gt;&lt;/b&gt;" style="text;html=1;align=center;verticalAlign=middle;whiteSpace=wrap;rounded=0;" vertex="1" parent="1">
          <mxGeometry x="2532.5" y="-1655" width="70" height="50" as="geometry" />
        </mxCell>
        <mxCell id="rPpRlWSM9VwXYQuEdTf5-188" value="&lt;b&gt;&lt;font style=&quot;font-size: 15px;&quot;&gt;N&lt;/font&gt;&lt;/b&gt;" style="text;html=1;align=center;verticalAlign=middle;whiteSpace=wrap;rounded=0;" vertex="1" parent="1">
          <mxGeometry x="2465" y="-1593.75" width="70" height="50" as="geometry" />
        </mxCell>
        <mxCell id="rPpRlWSM9VwXYQuEdTf5-189" value="contains" style="text;html=1;align=center;verticalAlign=middle;whiteSpace=wrap;rounded=0;" vertex="1" parent="1">
          <mxGeometry x="2520" y="-1597.5" width="60" height="30" as="geometry" />
        </mxCell>
        <mxCell id="rPpRlWSM9VwXYQuEdTf5-194" value="" style="rhombus;whiteSpace=wrap;html=1;" vertex="1" parent="1">
          <mxGeometry x="2565" y="-2180" width="60" height="60" as="geometry" />
        </mxCell>
        <mxCell id="rPpRlWSM9VwXYQuEdTf5-196" value="" style="rounded=0;whiteSpace=wrap;html=1;" vertex="1" parent="1">
          <mxGeometry x="2710" y="-2182.5" width="120" height="60" as="geometry" />
        </mxCell>
        <mxCell id="rPpRlWSM9VwXYQuEdTf5-197" value="has" style="text;html=1;align=center;verticalAlign=middle;whiteSpace=wrap;rounded=0;" vertex="1" parent="1">
          <mxGeometry x="2565" y="-2167.5" width="60" height="30" as="geometry" />
        </mxCell>
        <mxCell id="rPpRlWSM9VwXYQuEdTf5-198" value="SHIPPING_DETAILS" style="text;html=1;align=center;verticalAlign=middle;whiteSpace=wrap;rounded=0;" vertex="1" parent="1">
          <mxGeometry x="2740" y="-2167.5" width="60" height="30" as="geometry" />
        </mxCell>
        <mxCell id="rPpRlWSM9VwXYQuEdTf5-201" value="" style="ellipse;whiteSpace=wrap;html=1;aspect=fixed;" vertex="1" parent="1">
          <mxGeometry x="2745" y="-2260" width="30" height="30" as="geometry" />
        </mxCell>
        <mxCell id="rPpRlWSM9VwXYQuEdTf5-202" value="d" style="text;html=1;align=center;verticalAlign=middle;whiteSpace=wrap;rounded=0;" vertex="1" parent="1">
          <mxGeometry x="2730" y="-2260" width="60" height="30" as="geometry" />
        </mxCell>
        <mxCell id="rPpRlWSM9VwXYQuEdTf5-206" value="" style="rounded=0;whiteSpace=wrap;html=1;" vertex="1" parent="1">
          <mxGeometry x="2775" y="-2311.25" width="55" height="22.5" as="geometry" />
        </mxCell>
        <mxCell id="rPpRlWSM9VwXYQuEdTf5-207" value="&lt;b&gt;&lt;font style=&quot;font-size: 15px;&quot;&gt;1&lt;/font&gt;&lt;/b&gt;" style="text;html=1;align=center;verticalAlign=middle;whiteSpace=wrap;rounded=0;" vertex="1" parent="1">
          <mxGeometry x="2510" y="-2190" width="70" height="50" as="geometry" />
        </mxCell>
        <mxCell id="rPpRlWSM9VwXYQuEdTf5-208" value="&lt;b&gt;&lt;font style=&quot;font-size: 15px;&quot;&gt;N&lt;/font&gt;&lt;/b&gt;" style="text;html=1;align=center;verticalAlign=middle;whiteSpace=wrap;rounded=0;" vertex="1" parent="1">
          <mxGeometry x="2600" y="-2195" width="70" height="50" as="geometry" />
        </mxCell>
        <mxCell id="rPpRlWSM9VwXYQuEdTf5-209" value="" style="rounded=0;whiteSpace=wrap;html=1;" vertex="1" parent="1">
          <mxGeometry x="2685" y="-2311.25" width="55" height="22.5" as="geometry" />
        </mxCell>
        <mxCell id="rPpRlWSM9VwXYQuEdTf5-210" value="HOME" style="text;html=1;align=center;verticalAlign=middle;whiteSpace=wrap;rounded=0;" vertex="1" parent="1">
          <mxGeometry x="2682.5" y="-2315" width="60" height="30" as="geometry" />
        </mxCell>
        <mxCell id="rPpRlWSM9VwXYQuEdTf5-211" value="&lt;font style=&quot;font-size: 9px;&quot;&gt;CLICK-COLLECT&lt;/font&gt;" style="text;html=1;align=center;verticalAlign=middle;whiteSpace=wrap;rounded=0;" vertex="1" parent="1">
          <mxGeometry x="2772.5" y="-2315" width="60" height="30" as="geometry" />
        </mxCell>
        <mxCell id="rPpRlWSM9VwXYQuEdTf5-213" value="" style="endArrow=none;html=1;rounded=0;entryX=0.617;entryY=0.915;entryDx=0;entryDy=0;entryPerimeter=0;" edge="1" parent="1" target="rPpRlWSM9VwXYQuEdTf5-212">
          <mxGeometry width="50" height="50" relative="1" as="geometry">
            <mxPoint x="2720" y="-2290" as="sourcePoint" />
            <mxPoint x="2767" y="-2233" as="targetPoint" />
          </mxGeometry>
        </mxCell>
        <mxCell id="rPpRlWSM9VwXYQuEdTf5-212" value="" style="verticalLabelPosition=bottom;verticalAlign=top;html=1;shape=mxgraph.basic.arc;startAngle=0.2658627587152768;endAngle=0.7531826745504864;rotation=-45;" vertex="1" parent="1">
          <mxGeometry x="2725" y="-2292.5" width="15" height="30" as="geometry" />
        </mxCell>
        <mxCell id="rPpRlWSM9VwXYQuEdTf5-214" value="" style="verticalLabelPosition=bottom;verticalAlign=top;html=1;shape=mxgraph.basic.arc;startAngle=0.2658627587152768;endAngle=0.7531826745504864;rotation=32;" vertex="1" parent="1">
          <mxGeometry x="2775" y="-2290" width="15" height="30" as="geometry" />
        </mxCell>
        <mxCell id="rPpRlWSM9VwXYQuEdTf5-217" value="" style="verticalLabelPosition=bottom;verticalAlign=top;html=1;shape=mxgraph.basic.arc;startAngle=0.2658627587152768;endAngle=0.7531826745504864;rotation=0;" vertex="1" parent="1">
          <mxGeometry x="2300" y="-2292.5" width="15" height="27.5" as="geometry" />
        </mxCell>
        <mxCell id="rPpRlWSM9VwXYQuEdTf5-218" value="" style="endArrow=none;html=1;rounded=0;entryX=0.5;entryY=0;entryDx=0;entryDy=0;" edge="1" parent="1" source="rPpRlWSM9VwXYQuEdTf5-108">
          <mxGeometry width="50" height="50" relative="1" as="geometry">
            <mxPoint x="2480" y="-2190" as="sourcePoint" />
            <mxPoint x="2310" y="-2285" as="targetPoint" />
          </mxGeometry>
        </mxCell>
        <mxCell id="rPpRlWSM9VwXYQuEdTf5-221" value="" style="verticalLabelPosition=bottom;verticalAlign=top;html=1;shape=mxgraph.basic.arc;startAngle=0.2658627587152768;endAngle=0.7531826745504864;rotation=30;" vertex="1" parent="1">
          <mxGeometry x="2345" y="-2288.75" width="15" height="30" as="geometry" />
        </mxCell>
        <mxCell id="rPpRlWSM9VwXYQuEdTf5-222" value="&lt;font style=&quot;font-size: 8px;&quot;&gt;STANDART&lt;/font&gt;" style="text;html=1;align=center;verticalAlign=middle;whiteSpace=wrap;rounded=0;" vertex="1" parent="1">
          <mxGeometry x="2282.5" y="-2311.25" width="60" height="30" as="geometry" />
        </mxCell>
        <mxCell id="rPpRlWSM9VwXYQuEdTf5-223" value="ELITE" style="text;html=1;align=center;verticalAlign=middle;whiteSpace=wrap;rounded=0;" vertex="1" parent="1">
          <mxGeometry x="2355" y="-2310" width="60" height="30" as="geometry" />
        </mxCell>
        <mxCell id="rPpRlWSM9VwXYQuEdTf5-224" value="" style="endArrow=none;html=1;rounded=0;entryX=0.969;entryY=0.881;entryDx=0;entryDy=0;entryPerimeter=0;" edge="1" parent="1" target="GgLwPMv9YuK2Pm7wXXBy-36">
          <mxGeometry width="50" height="50" relative="1" as="geometry">
            <mxPoint x="2520" y="-2030" as="sourcePoint" />
            <mxPoint x="2610" y="-2030" as="targetPoint" />
          </mxGeometry>
        </mxCell>
        <mxCell id="rPpRlWSM9VwXYQuEdTf5-225" value="" style="rhombus;whiteSpace=wrap;html=1;" vertex="1" parent="1">
          <mxGeometry x="2505" y="-2062.5" width="80" height="80" as="geometry" />
        </mxCell>
        <mxCell id="rPpRlWSM9VwXYQuEdTf5-227" value="" style="rounded=0;whiteSpace=wrap;html=1;" vertex="1" parent="1">
          <mxGeometry x="2635" y="-2015" width="120" height="60" as="geometry" />
        </mxCell>
        <mxCell id="rPpRlWSM9VwXYQuEdTf5-229" value="has" style="text;html=1;align=center;verticalAlign=middle;whiteSpace=wrap;rounded=0;" vertex="1" parent="1">
          <mxGeometry x="2515" y="-2038.41" width="60" height="30" as="geometry" />
        </mxCell>
        <mxCell id="rPpRlWSM9VwXYQuEdTf5-230" value="PAYMENT_METHOD" style="text;html=1;align=center;verticalAlign=middle;whiteSpace=wrap;rounded=0;" vertex="1" parent="1">
          <mxGeometry x="2665" y="-2005" width="60" height="35" as="geometry" />
        </mxCell>
        <mxCell id="rPpRlWSM9VwXYQuEdTf5-231" value="&lt;b&gt;&lt;font style=&quot;font-size: 15px;&quot;&gt;1&lt;/font&gt;&lt;/b&gt;" style="text;html=1;align=center;verticalAlign=middle;whiteSpace=wrap;rounded=0;" vertex="1" parent="1">
          <mxGeometry x="2485" y="-2076.83" width="70" height="50" as="geometry" />
        </mxCell>
        <mxCell id="rPpRlWSM9VwXYQuEdTf5-232" value="&lt;b&gt;&lt;font style=&quot;font-size: 15px;&quot;&gt;N&lt;/font&gt;&lt;/b&gt;" style="text;html=1;align=center;verticalAlign=middle;whiteSpace=wrap;rounded=0;" vertex="1" parent="1">
          <mxGeometry x="2535" y="-2012.5" width="70" height="50" as="geometry" />
        </mxCell>
        <mxCell id="rPpRlWSM9VwXYQuEdTf5-233" value="" style="rounded=0;whiteSpace=wrap;html=1;" vertex="1" parent="1">
          <mxGeometry x="2605" y="-2105" width="50" height="20" as="geometry" />
        </mxCell>
        <mxCell id="rPpRlWSM9VwXYQuEdTf5-234" value="" style="rounded=0;whiteSpace=wrap;html=1;" vertex="1" parent="1">
          <mxGeometry x="2675" y="-2105" width="50" height="20" as="geometry" />
        </mxCell>
        <mxCell id="rPpRlWSM9VwXYQuEdTf5-235" value="" style="rounded=0;whiteSpace=wrap;html=1;" vertex="1" parent="1">
          <mxGeometry x="2742.5" y="-2105" width="50" height="20" as="geometry" />
        </mxCell>
        <mxCell id="rPpRlWSM9VwXYQuEdTf5-239" value="" style="endArrow=none;html=1;rounded=0;entryX=0.617;entryY=0.915;entryDx=0;entryDy=0;entryPerimeter=0;exitX=0.64;exitY=0.925;exitDx=0;exitDy=0;exitPerimeter=0;" edge="1" parent="1" source="rPpRlWSM9VwXYQuEdTf5-250">
          <mxGeometry width="50" height="50" relative="1" as="geometry">
            <mxPoint x="2677" y="-2058" as="sourcePoint" />
            <mxPoint x="2698.9349999999995" y="-2031.8555499999998" as="targetPoint" />
          </mxGeometry>
        </mxCell>
        <mxCell id="rPpRlWSM9VwXYQuEdTf5-240" value="" style="ellipse;whiteSpace=wrap;html=1;aspect=fixed;" vertex="1" parent="1">
          <mxGeometry x="2682.5" y="-2062.5" width="30" height="30" as="geometry" />
        </mxCell>
        <mxCell id="rPpRlWSM9VwXYQuEdTf5-242" value="" style="endArrow=none;html=1;rounded=0;entryX=0.5;entryY=1;entryDx=0;entryDy=0;" edge="1" parent="1" source="rPpRlWSM9VwXYQuEdTf5-240" target="rPpRlWSM9VwXYQuEdTf5-234">
          <mxGeometry width="50" height="50" relative="1" as="geometry">
            <mxPoint x="2560" y="-2070" as="sourcePoint" />
            <mxPoint x="2610" y="-2120" as="targetPoint" />
          </mxGeometry>
        </mxCell>
        <mxCell id="rPpRlWSM9VwXYQuEdTf5-243" value="" style="endArrow=none;html=1;rounded=0;entryX=0.5;entryY=1;entryDx=0;entryDy=0;exitX=1;exitY=0.5;exitDx=0;exitDy=0;" edge="1" parent="1" source="rPpRlWSM9VwXYQuEdTf5-248" target="rPpRlWSM9VwXYQuEdTf5-235">
          <mxGeometry width="50" height="50" relative="1" as="geometry">
            <mxPoint x="2560" y="-2070" as="sourcePoint" />
            <mxPoint x="2610" y="-2120" as="targetPoint" />
          </mxGeometry>
        </mxCell>
        <mxCell id="rPpRlWSM9VwXYQuEdTf5-247" value="d" style="text;html=1;align=center;verticalAlign=middle;whiteSpace=wrap;rounded=0;" vertex="1" parent="1">
          <mxGeometry x="2667.5" y="-2062.5" width="60" height="30" as="geometry" />
        </mxCell>
        <mxCell id="rPpRlWSM9VwXYQuEdTf5-249" value="" style="endArrow=none;html=1;rounded=0;entryX=0.5;entryY=1;entryDx=0;entryDy=0;exitX=1;exitY=0.5;exitDx=0;exitDy=0;" edge="1" parent="1" source="rPpRlWSM9VwXYQuEdTf5-240" target="rPpRlWSM9VwXYQuEdTf5-248">
          <mxGeometry width="50" height="50" relative="1" as="geometry">
            <mxPoint x="2713" y="-2047" as="sourcePoint" />
            <mxPoint x="2767" y="-2085" as="targetPoint" />
          </mxGeometry>
        </mxCell>
        <mxCell id="rPpRlWSM9VwXYQuEdTf5-248" value="" style="verticalLabelPosition=bottom;verticalAlign=top;html=1;shape=mxgraph.basic.arc;startAngle=0.2468173254495136;endAngle=0.7531826745504864;rotation=30;" vertex="1" parent="1">
          <mxGeometry x="2732.5" y="-2085" width="15" height="30" as="geometry" />
        </mxCell>
        <mxCell id="rPpRlWSM9VwXYQuEdTf5-252" value="" style="endArrow=none;html=1;rounded=0;entryX=0.617;entryY=0.915;entryDx=0;entryDy=0;entryPerimeter=0;exitX=0.64;exitY=0.925;exitDx=0;exitDy=0;exitPerimeter=0;" edge="1" parent="1" source="rPpRlWSM9VwXYQuEdTf5-233" target="rPpRlWSM9VwXYQuEdTf5-250">
          <mxGeometry width="50" height="50" relative="1" as="geometry">
            <mxPoint x="2637" y="-2086" as="sourcePoint" />
            <mxPoint x="2698.9349999999995" y="-2031.8555499999998" as="targetPoint" />
          </mxGeometry>
        </mxCell>
        <mxCell id="rPpRlWSM9VwXYQuEdTf5-250" value="" style="verticalLabelPosition=bottom;verticalAlign=top;html=1;shape=mxgraph.basic.arc;startAngle=0.2404621378820819;endAngle=0.7531826745504864;rotation=-30;" vertex="1" parent="1">
          <mxGeometry x="2647.5" y="-2084.37" width="15" height="28.75" as="geometry" />
        </mxCell>
        <mxCell id="rPpRlWSM9VwXYQuEdTf5-253" value="" style="verticalLabelPosition=bottom;verticalAlign=top;html=1;shape=mxgraph.basic.arc;startAngle=0.2658627587152768;endAngle=0.7531826745504864;rotation=0;" vertex="1" parent="1">
          <mxGeometry x="2692.5" y="-2095" width="15" height="30" as="geometry" />
        </mxCell>
        <mxCell id="rPpRlWSM9VwXYQuEdTf5-254" value="&lt;font style=&quot;font-size: 7px;&quot;&gt;CREDIT_CARD&lt;/font&gt;" style="text;html=1;align=center;verticalAlign=middle;whiteSpace=wrap;rounded=0;" vertex="1" parent="1">
          <mxGeometry x="2602.5" y="-2110" width="60" height="30" as="geometry" />
        </mxCell>
        <mxCell id="rPpRlWSM9VwXYQuEdTf5-256" value="&lt;font style=&quot;font-size: 8px;&quot;&gt;DEBIT_CARD&lt;/font&gt;" style="text;html=1;align=center;verticalAlign=middle;whiteSpace=wrap;rounded=0;" vertex="1" parent="1">
          <mxGeometry x="2670" y="-2110" width="60" height="30" as="geometry" />
        </mxCell>
        <mxCell id="rPpRlWSM9VwXYQuEdTf5-257" value="WALLET" style="text;html=1;align=center;verticalAlign=middle;whiteSpace=wrap;rounded=0;" vertex="1" parent="1">
          <mxGeometry x="2737.5" y="-2110" width="60" height="30" as="geometry" />
        </mxCell>
        <mxCell id="rPpRlWSM9VwXYQuEdTf5-258" value="" style="endArrow=none;html=1;rounded=0;" edge="1" parent="1" target="rPpRlWSM9VwXYQuEdTf5-227">
          <mxGeometry width="50" height="50" relative="1" as="geometry">
            <mxPoint x="2660" y="-1910" as="sourcePoint" />
            <mxPoint x="2610" y="-1980" as="targetPoint" />
          </mxGeometry>
        </mxCell>
        <mxCell id="rPpRlWSM9VwXYQuEdTf5-259" value="" style="rhombus;whiteSpace=wrap;html=1;" vertex="1" parent="1">
          <mxGeometry x="2625" y="-1935" width="65" height="60" as="geometry" />
        </mxCell>
        <mxCell id="rPpRlWSM9VwXYQuEdTf5-263" value="uses" style="text;html=1;align=center;verticalAlign=middle;whiteSpace=wrap;rounded=0;" vertex="1" parent="1">
          <mxGeometry x="2627.5" y="-1920" width="60" height="30" as="geometry" />
        </mxCell>
        <mxCell id="rPpRlWSM9VwXYQuEdTf5-264" value="&lt;b&gt;&lt;font style=&quot;font-size: 15px;&quot;&gt;1&lt;/font&gt;&lt;/b&gt;" style="text;html=1;align=center;verticalAlign=middle;whiteSpace=wrap;rounded=0;" vertex="1" parent="1">
          <mxGeometry x="2627.5" y="-1965" width="70" height="50" as="geometry" />
        </mxCell>
        <mxCell id="rPpRlWSM9VwXYQuEdTf5-265" value="&lt;b&gt;&lt;font style=&quot;font-size: 15px;&quot;&gt;N&lt;/font&gt;&lt;/b&gt;" style="text;html=1;align=center;verticalAlign=middle;whiteSpace=wrap;rounded=0;" vertex="1" parent="1">
          <mxGeometry x="2610" y="-1900" width="70" height="50" as="geometry" />
        </mxCell>
        <mxCell id="rPpRlWSM9VwXYQuEdTf5-266" value="" style="endArrow=none;html=1;rounded=0;entryX=1;entryY=0.75;entryDx=0;entryDy=0;" edge="1" parent="1" source="rPpRlWSM9VwXYQuEdTf5-267" target="rPpRlWSM9VwXYQuEdTf5-196">
          <mxGeometry width="50" height="50" relative="1" as="geometry">
            <mxPoint x="2870" y="-2070" as="sourcePoint" />
            <mxPoint x="2835.91" y="-2142.585" as="targetPoint" />
          </mxGeometry>
        </mxCell>
        <mxCell id="rPpRlWSM9VwXYQuEdTf5-267" value="" style="rhombus;whiteSpace=wrap;html=1;" vertex="1" parent="1">
          <mxGeometry x="2915.62" y="-2009.9999999999998" width="65" height="60" as="geometry" />
        </mxCell>
        <mxCell id="rPpRlWSM9VwXYQuEdTf5-269" value="&lt;font style=&quot;font-size: 11px;&quot;&gt;assigned_to&lt;/font&gt;" style="text;html=1;align=center;verticalAlign=middle;whiteSpace=wrap;rounded=0;" vertex="1" parent="1">
          <mxGeometry x="2922.5" y="-1995" width="47.5" height="25" as="geometry" />
        </mxCell>
        <mxCell id="rPpRlWSM9VwXYQuEdTf5-270" value="&lt;b&gt;&lt;font style=&quot;font-size: 15px;&quot;&gt;1&lt;/font&gt;&lt;/b&gt;" style="text;html=1;align=center;verticalAlign=middle;whiteSpace=wrap;rounded=0;" vertex="1" parent="1">
          <mxGeometry x="2930" y="-1978.4099999999999" width="70" height="50" as="geometry" />
        </mxCell>
        <mxCell id="rPpRlWSM9VwXYQuEdTf5-271" value="&lt;b&gt;&lt;font style=&quot;font-size: 15px;&quot;&gt;N&lt;/font&gt;&lt;/b&gt;" style="text;html=1;align=center;verticalAlign=middle;whiteSpace=wrap;rounded=0;" vertex="1" parent="1">
          <mxGeometry x="2900" y="-2038.41" width="70" height="45" as="geometry" />
        </mxCell>
        <mxCell id="rPpRlWSM9VwXYQuEdTf5-275" value="" style="endArrow=none;html=1;rounded=0;exitX=1;exitY=0.25;exitDx=0;exitDy=0;" edge="1" parent="1" source="rPpRlWSM9VwXYQuEdTf5-172">
          <mxGeometry width="50" height="50" relative="1" as="geometry">
            <mxPoint x="2890" y="-1760" as="sourcePoint" />
            <mxPoint x="2800" y="-1847" as="targetPoint" />
          </mxGeometry>
        </mxCell>
        <mxCell id="rPpRlWSM9VwXYQuEdTf5-276" value="" style="rhombus;whiteSpace=wrap;html=1;" vertex="1" parent="1">
          <mxGeometry x="2787.5" y="-1885" width="80" height="80" as="geometry" />
        </mxCell>
        <mxCell id="rPpRlWSM9VwXYQuEdTf5-279" value="" style="rounded=0;whiteSpace=wrap;html=1;" vertex="1" parent="1">
          <mxGeometry x="2970" y="-1867.5" width="120" height="60" as="geometry" />
        </mxCell>
        <mxCell id="rPpRlWSM9VwXYQuEdTf5-280" value="" style="rounded=0;whiteSpace=wrap;html=1;" vertex="1" parent="1">
          <mxGeometry x="2975" y="-1860" width="110" height="47.5" as="geometry" />
        </mxCell>
        <mxCell id="rPpRlWSM9VwXYQuEdTf5-281" value="&lt;b&gt;&lt;font style=&quot;font-size: 15px;&quot;&gt;N&lt;/font&gt;&lt;/b&gt;" style="text;html=1;align=center;verticalAlign=middle;whiteSpace=wrap;rounded=0;" vertex="1" parent="1">
          <mxGeometry x="2835" y="-1887.5" width="70" height="50" as="geometry" />
        </mxCell>
        <mxCell id="rPpRlWSM9VwXYQuEdTf5-282" value="&lt;b&gt;&lt;font style=&quot;font-size: 15px;&quot;&gt;1&lt;/font&gt;&lt;/b&gt;" style="text;html=1;align=center;verticalAlign=middle;whiteSpace=wrap;rounded=0;" vertex="1" parent="1">
          <mxGeometry x="2742.5" y="-1861.25" width="70" height="50" as="geometry" />
        </mxCell>
        <mxCell id="rPpRlWSM9VwXYQuEdTf5-283" value="has" style="text;html=1;align=center;verticalAlign=middle;whiteSpace=wrap;rounded=0;" vertex="1" parent="1">
          <mxGeometry x="2797.5" y="-1860" width="60" height="30" as="geometry" />
        </mxCell>
        <mxCell id="rPpRlWSM9VwXYQuEdTf5-284" value="ORDER_HISTORY" style="text;html=1;align=center;verticalAlign=middle;whiteSpace=wrap;rounded=0;" vertex="1" parent="1">
          <mxGeometry x="3000" y="-1851.25" width="60" height="30" as="geometry" />
        </mxCell>
        <mxCell id="rPpRlWSM9VwXYQuEdTf5-319" value="" style="rounded=0;whiteSpace=wrap;html=1;" vertex="1" parent="1">
          <mxGeometry x="2250" y="-1610" width="101" height="50" as="geometry" />
        </mxCell>
        <mxCell id="rPpRlWSM9VwXYQuEdTf5-320" value="CART_ITEM" style="text;html=1;align=center;verticalAlign=middle;whiteSpace=wrap;rounded=0;" vertex="1" parent="1">
          <mxGeometry x="2269.53" y="-1600" width="60" height="30" as="geometry" />
        </mxCell>
        <mxCell id="rPpRlWSM9VwXYQuEdTf5-322" value="creates" style="rhombus;whiteSpace=wrap;html=1;" vertex="1" parent="1">
          <mxGeometry x="2290" y="-1685" width="60" height="50" as="geometry" />
        </mxCell>
        <mxCell id="rPpRlWSM9VwXYQuEdTf5-324" value="" style="endArrow=none;html=1;rounded=0;entryX=0.5;entryY=0;entryDx=0;entryDy=0;exitX=0.167;exitY=1;exitDx=0;exitDy=0;exitPerimeter=0;" edge="1" parent="1" source="rPpRlWSM9VwXYQuEdTf5-132" target="rPpRlWSM9VwXYQuEdTf5-322">
          <mxGeometry width="50" height="50" relative="1" as="geometry">
            <mxPoint x="2260" y="-1580" as="sourcePoint" />
            <mxPoint x="2310" y="-1630" as="targetPoint" />
          </mxGeometry>
        </mxCell>
        <mxCell id="rPpRlWSM9VwXYQuEdTf5-330" value="&lt;b&gt;&lt;font style=&quot;font-size: 15px;&quot;&gt;1&lt;/font&gt;&lt;/b&gt;" style="text;html=1;align=center;verticalAlign=middle;whiteSpace=wrap;rounded=0;" vertex="1" parent="1">
          <mxGeometry x="2156.85" y="-1625" width="70" height="50" as="geometry" />
        </mxCell>
        <mxCell id="rPpRlWSM9VwXYQuEdTf5-331" value="&lt;b&gt;&lt;font style=&quot;font-size: 15px;&quot;&gt;N&lt;/font&gt;&lt;/b&gt;" style="text;html=1;align=center;verticalAlign=middle;whiteSpace=wrap;rounded=0;" vertex="1" parent="1">
          <mxGeometry x="2055" y="-1610" width="70" height="50" as="geometry" />
        </mxCell>
        <mxCell id="rPpRlWSM9VwXYQuEdTf5-334" value="&lt;b&gt;&lt;font style=&quot;font-size: 15px;&quot;&gt;1&lt;/font&gt;&lt;/b&gt;" style="text;html=1;align=center;verticalAlign=middle;whiteSpace=wrap;rounded=0;" vertex="1" parent="1">
          <mxGeometry x="2299.35" y="-1710" width="70" height="50" as="geometry" />
        </mxCell>
        <mxCell id="rPpRlWSM9VwXYQuEdTf5-335" value="&lt;b&gt;&lt;font style=&quot;font-size: 15px;&quot;&gt;N&lt;/font&gt;&lt;/b&gt;" style="text;html=1;align=center;verticalAlign=middle;whiteSpace=wrap;rounded=0;" vertex="1" parent="1">
          <mxGeometry x="2299.35" y="-1660" width="70" height="50" as="geometry" />
        </mxCell>
        <mxCell id="rPpRlWSM9VwXYQuEdTf5-336" value="" style="endArrow=none;html=1;rounded=0;" edge="1" parent="1" source="rPpRlWSM9VwXYQuEdTf5-337" target="rPpRlWSM9VwXYQuEdTf5-172">
          <mxGeometry width="50" height="50" relative="1" as="geometry">
            <mxPoint x="2750" y="-1560" as="sourcePoint" />
            <mxPoint x="2870" y="-1660" as="targetPoint" />
          </mxGeometry>
        </mxCell>
        <mxCell id="rPpRlWSM9VwXYQuEdTf5-338" value="" style="endArrow=none;html=1;rounded=0;" edge="1" parent="1" target="rPpRlWSM9VwXYQuEdTf5-337">
          <mxGeometry width="50" height="50" relative="1" as="geometry">
            <mxPoint x="2750" y="-1560" as="sourcePoint" />
            <mxPoint x="2573" y="-1800" as="targetPoint" />
          </mxGeometry>
        </mxCell>
        <mxCell id="rPpRlWSM9VwXYQuEdTf5-337" value="" style="rhombus;whiteSpace=wrap;html=1;" vertex="1" parent="1">
          <mxGeometry x="2682.5" y="-1595" width="80" height="80" as="geometry" />
        </mxCell>
        <mxCell id="rPpRlWSM9VwXYQuEdTf5-339" value="" style="endArrow=none;html=1;rounded=0;" edge="1" parent="1" source="rPpRlWSM9VwXYQuEdTf5-340" target="rPpRlWSM9VwXYQuEdTf5-337">
          <mxGeometry width="50" height="50" relative="1" as="geometry">
            <mxPoint x="2800" y="-1460" as="sourcePoint" />
            <mxPoint x="2870" y="-1560" as="targetPoint" />
          </mxGeometry>
        </mxCell>
        <mxCell id="rPpRlWSM9VwXYQuEdTf5-340" value="" style="rounded=0;whiteSpace=wrap;html=1;" vertex="1" parent="1">
          <mxGeometry x="2822.5" y="-1470" width="120" height="60" as="geometry" />
        </mxCell>
        <mxCell id="rPpRlWSM9VwXYQuEdTf5-342" value="" style="endArrow=none;html=1;rounded=0;" edge="1" parent="1">
          <mxGeometry width="50" height="50" relative="1" as="geometry">
            <mxPoint x="2713.5" y="-1582.5" as="sourcePoint" />
            <mxPoint x="2576.5" y="-1802.5" as="targetPoint" />
          </mxGeometry>
        </mxCell>
        <mxCell id="rPpRlWSM9VwXYQuEdTf5-343" value="" style="rhombus;whiteSpace=wrap;html=1;" vertex="1" parent="1">
          <mxGeometry x="2691.88" y="-1585" width="61.25" height="60" as="geometry" />
        </mxCell>
        <mxCell id="rPpRlWSM9VwXYQuEdTf5-346" value="" style="rounded=0;whiteSpace=wrap;html=1;" vertex="1" parent="1">
          <mxGeometry x="2828.75" y="-1465" width="107.5" height="50" as="geometry" />
        </mxCell>
        <mxCell id="rPpRlWSM9VwXYQuEdTf5-347" value="has" style="text;html=1;align=center;verticalAlign=middle;whiteSpace=wrap;rounded=0;" vertex="1" parent="1">
          <mxGeometry x="2692.51" y="-1572.5" width="60" height="30" as="geometry" />
        </mxCell>
        <mxCell id="rPpRlWSM9VwXYQuEdTf5-348" value="SHIPMENT" style="text;html=1;align=center;verticalAlign=middle;whiteSpace=wrap;rounded=0;" vertex="1" parent="1">
          <mxGeometry x="2852.5" y="-1455" width="60" height="30" as="geometry" />
        </mxCell>
        <mxCell id="rPpRlWSM9VwXYQuEdTf5-350" value="" style="rhombus;whiteSpace=wrap;html=1;" vertex="1" parent="1">
          <mxGeometry x="2842.5" y="-1375" width="80" height="80" as="geometry" />
        </mxCell>
        <mxCell id="rPpRlWSM9VwXYQuEdTf5-351" value="&lt;b&gt;&lt;font style=&quot;font-size: 15px;&quot;&gt;1&lt;/font&gt;&lt;/b&gt;" style="text;html=1;align=center;verticalAlign=middle;whiteSpace=wrap;rounded=0;" vertex="1" parent="1">
          <mxGeometry x="2677.5" y="-1625" width="70" height="50" as="geometry" />
        </mxCell>
        <mxCell id="rPpRlWSM9VwXYQuEdTf5-352" value="&lt;b&gt;&lt;font style=&quot;font-size: 15px;&quot;&gt;N&lt;/font&gt;&lt;/b&gt;" style="text;html=1;align=center;verticalAlign=middle;whiteSpace=wrap;rounded=0;" vertex="1" parent="1">
          <mxGeometry x="2707.5" y="-1540" width="70" height="50" as="geometry" />
        </mxCell>
        <mxCell id="rPpRlWSM9VwXYQuEdTf5-353" value="" style="endArrow=none;html=1;rounded=0;" edge="1" parent="1" target="rPpRlWSM9VwXYQuEdTf5-350">
          <mxGeometry width="50" height="50" relative="1" as="geometry">
            <mxPoint x="2883" y="-1230" as="sourcePoint" />
            <mxPoint x="2870" y="-1340" as="targetPoint" />
          </mxGeometry>
        </mxCell>
        <mxCell id="rPpRlWSM9VwXYQuEdTf5-354" value="" style="rounded=0;whiteSpace=wrap;html=1;" vertex="1" parent="1">
          <mxGeometry x="2822.5" y="-1250" width="120" height="60" as="geometry" />
        </mxCell>
        <mxCell id="rPpRlWSM9VwXYQuEdTf5-355" value="&lt;b&gt;&lt;font style=&quot;font-size: 15px;&quot;&gt;N&lt;/font&gt;&lt;/b&gt;" style="text;html=1;align=center;verticalAlign=middle;whiteSpace=wrap;rounded=0;" vertex="1" parent="1">
          <mxGeometry x="2870" y="-1393.75" width="70" height="50" as="geometry" />
        </mxCell>
        <mxCell id="rPpRlWSM9VwXYQuEdTf5-356" value="&lt;b&gt;&lt;font style=&quot;font-size: 15px;&quot;&gt;M&lt;/font&gt;&lt;/b&gt;" style="text;html=1;align=center;verticalAlign=middle;whiteSpace=wrap;rounded=0;" vertex="1" parent="1">
          <mxGeometry x="2828.75" y="-1310" width="70" height="50" as="geometry" />
        </mxCell>
        <mxCell id="rPpRlWSM9VwXYQuEdTf5-357" value="shipped_by" style="text;html=1;align=center;verticalAlign=middle;whiteSpace=wrap;rounded=0;" vertex="1" parent="1">
          <mxGeometry x="2852.5" y="-1350" width="60" height="30" as="geometry" />
        </mxCell>
        <mxCell id="rPpRlWSM9VwXYQuEdTf5-358" value="CARRIER" style="text;html=1;align=center;verticalAlign=middle;whiteSpace=wrap;rounded=0;" vertex="1" parent="1">
          <mxGeometry x="2852.5" y="-1235" width="60" height="30" as="geometry" />
        </mxCell>
        <mxCell id="rPpRlWSM9VwXYQuEdTf5-361" value="" style="endArrow=none;html=1;rounded=0;" edge="1" parent="1">
          <mxGeometry width="50" height="50" relative="1" as="geometry">
            <mxPoint x="1790" y="-2418.9" as="sourcePoint" />
            <mxPoint x="1790" y="-2460" as="targetPoint" />
          </mxGeometry>
        </mxCell>
        <mxCell id="rPpRlWSM9VwXYQuEdTf5-370" value="" style="endArrow=none;html=1;rounded=0;" edge="1" parent="1">
          <mxGeometry width="50" height="50" relative="1" as="geometry">
            <mxPoint x="1670" y="-2400" as="sourcePoint" />
            <mxPoint x="1730" y="-2400" as="targetPoint" />
          </mxGeometry>
        </mxCell>
        <mxCell id="rPpRlWSM9VwXYQuEdTf5-371" value="" style="ellipse;whiteSpace=wrap;html=1;" vertex="1" parent="1">
          <mxGeometry x="1630" y="-2420" width="70" height="43.9" as="geometry" />
        </mxCell>
        <mxCell id="rPpRlWSM9VwXYQuEdTf5-372" value="" style="endArrow=none;html=1;rounded=0;entryX=0.128;entryY=1.004;entryDx=0;entryDy=0;entryPerimeter=0;" edge="1" parent="1" target="GgLwPMv9YuK2Pm7wXXBy-60">
          <mxGeometry width="50" height="50" relative="1" as="geometry">
            <mxPoint x="1740" y="-2320" as="sourcePoint" />
            <mxPoint x="1980" y="-2320" as="targetPoint" />
          </mxGeometry>
        </mxCell>
        <mxCell id="rPpRlWSM9VwXYQuEdTf5-373" value="" style="ellipse;whiteSpace=wrap;html=1;" vertex="1" parent="1">
          <mxGeometry x="1700" y="-2333.9" width="70" height="43.9" as="geometry" />
        </mxCell>
        <mxCell id="rPpRlWSM9VwXYQuEdTf5-374" value="" style="endArrow=none;html=1;rounded=0;entryX=0.128;entryY=1.004;entryDx=0;entryDy=0;entryPerimeter=0;" edge="1" parent="1">
          <mxGeometry width="50" height="50" relative="1" as="geometry">
            <mxPoint x="1811" y="-2330" as="sourcePoint" />
            <mxPoint x="1815" y="-2363.9" as="targetPoint" />
          </mxGeometry>
        </mxCell>
        <mxCell id="rPpRlWSM9VwXYQuEdTf5-375" value="" style="ellipse;whiteSpace=wrap;html=1;" vertex="1" parent="1">
          <mxGeometry x="1782.5" y="-2332.65" width="70" height="43.9" as="geometry" />
        </mxCell>
        <mxCell id="rPpRlWSM9VwXYQuEdTf5-376" value="e_mail" style="text;html=1;align=center;verticalAlign=middle;whiteSpace=wrap;rounded=0;" vertex="1" parent="1">
          <mxGeometry x="1630.17" y="-2413.05" width="60" height="30" as="geometry" />
        </mxCell>
        <mxCell id="rPpRlWSM9VwXYQuEdTf5-377" value="sms" style="text;html=1;align=center;verticalAlign=middle;whiteSpace=wrap;rounded=0;" vertex="1" parent="1">
          <mxGeometry x="1705" y="-2326.9500000000003" width="60" height="30" as="geometry" />
        </mxCell>
        <mxCell id="rPpRlWSM9VwXYQuEdTf5-378" value="phone" style="text;html=1;align=center;verticalAlign=middle;whiteSpace=wrap;rounded=0;" vertex="1" parent="1">
          <mxGeometry x="1787.5" y="-2326.9500000000003" width="60" height="30" as="geometry" />
        </mxCell>
        <mxCell id="rPpRlWSM9VwXYQuEdTf5-379" value="" style="endArrow=none;html=1;rounded=0;entryX=0.161;entryY=0.022;entryDx=0;entryDy=0;entryPerimeter=0;" edge="1" parent="1" target="GgLwPMv9YuK2Pm7wXXBy-26">
          <mxGeometry width="50" height="50" relative="1" as="geometry">
            <mxPoint x="2130" y="-2460" as="sourcePoint" />
            <mxPoint x="2270" y="-2410" as="targetPoint" />
          </mxGeometry>
        </mxCell>
        <mxCell id="rPpRlWSM9VwXYQuEdTf5-380" value="" style="endArrow=none;html=1;rounded=0;" edge="1" parent="1">
          <mxGeometry width="50" height="50" relative="1" as="geometry">
            <mxPoint x="2330" y="-2490" as="sourcePoint" />
            <mxPoint x="2330" y="-2455" as="targetPoint" />
          </mxGeometry>
        </mxCell>
        <mxCell id="rPpRlWSM9VwXYQuEdTf5-381" value="" style="endArrow=none;html=1;rounded=0;entryX=0.5;entryY=0;entryDx=0;entryDy=0;" edge="1" parent="1" target="GgLwPMv9YuK2Pm7wXXBy-26">
          <mxGeometry width="50" height="50" relative="1" as="geometry">
            <mxPoint x="2190" y="-2460" as="sourcePoint" />
            <mxPoint x="2169" y="-2399" as="targetPoint" />
          </mxGeometry>
        </mxCell>
        <mxCell id="rPpRlWSM9VwXYQuEdTf5-382" value="" style="endArrow=none;html=1;rounded=0;entryX=0.7;entryY=0.022;entryDx=0;entryDy=0;entryPerimeter=0;" edge="1" parent="1" target="GgLwPMv9YuK2Pm7wXXBy-26">
          <mxGeometry width="50" height="50" relative="1" as="geometry">
            <mxPoint x="2230" y="-2460" as="sourcePoint" />
            <mxPoint x="2179" y="-2389" as="targetPoint" />
          </mxGeometry>
        </mxCell>
        <mxCell id="rPpRlWSM9VwXYQuEdTf5-383" value="" style="endArrow=none;html=1;rounded=0;entryX=1;entryY=0.25;entryDx=0;entryDy=0;" edge="1" parent="1" target="GgLwPMv9YuK2Pm7wXXBy-26">
          <mxGeometry width="50" height="50" relative="1" as="geometry">
            <mxPoint x="2300" y="-2430" as="sourcePoint" />
            <mxPoint x="2189" y="-2379" as="targetPoint" />
          </mxGeometry>
        </mxCell>
        <mxCell id="rPpRlWSM9VwXYQuEdTf5-384" value="e_mail" style="ellipse;whiteSpace=wrap;html=1;" vertex="1" parent="1">
          <mxGeometry x="2084.6800000000003" y="-2490" width="65.32" height="35" as="geometry" />
        </mxCell>
        <mxCell id="rPpRlWSM9VwXYQuEdTf5-385" value="user_id" style="ellipse;whiteSpace=wrap;html=1;" vertex="1" parent="1">
          <mxGeometry x="2220.0000000000005" y="-2490" width="65.32" height="35" as="geometry" />
        </mxCell>
        <mxCell id="rPpRlWSM9VwXYQuEdTf5-386" value="name" style="ellipse;whiteSpace=wrap;html=1;" vertex="1" parent="1">
          <mxGeometry x="2292.5000000000005" y="-2455" width="65.32" height="35" as="geometry" />
        </mxCell>
        <mxCell id="rPpRlWSM9VwXYQuEdTf5-387" value="phone" style="ellipse;whiteSpace=wrap;html=1;" vertex="1" parent="1">
          <mxGeometry x="2150.0000000000005" y="-2490" width="65.32" height="35" as="geometry" />
        </mxCell>
        <mxCell id="rPpRlWSM9VwXYQuEdTf5-390" value="" style="endArrow=none;html=1;rounded=0;entryX=1;entryY=0;entryDx=0;entryDy=0;" edge="1" parent="1" target="rPpRlWSM9VwXYQuEdTf5-386">
          <mxGeometry width="50" height="50" relative="1" as="geometry">
            <mxPoint x="2370" y="-2480" as="sourcePoint" />
            <mxPoint x="2340" y="-2445" as="targetPoint" />
          </mxGeometry>
        </mxCell>
        <mxCell id="rPpRlWSM9VwXYQuEdTf5-391" value="lname" style="ellipse;whiteSpace=wrap;html=1;" vertex="1" parent="1">
          <mxGeometry x="2359.6800000000003" y="-2510" width="65.32" height="35" as="geometry" />
        </mxCell>
        <mxCell id="rPpRlWSM9VwXYQuEdTf5-392" value="fname" style="ellipse;whiteSpace=wrap;html=1;" vertex="1" parent="1">
          <mxGeometry x="2294.3600000000006" y="-2510" width="65.32" height="35" as="geometry" />
        </mxCell>
        <mxCell id="rPpRlWSM9VwXYQuEdTf5-393" value="" style="endArrow=none;html=1;rounded=0;" edge="1" parent="1">
          <mxGeometry width="50" height="50" relative="1" as="geometry">
            <mxPoint x="2250.53" y="-2393.9" as="sourcePoint" />
            <mxPoint x="2300" y="-2390" as="targetPoint" />
          </mxGeometry>
        </mxCell>
        <mxCell id="rPpRlWSM9VwXYQuEdTf5-394" value="reg_date" style="ellipse;whiteSpace=wrap;html=1;" vertex="1" parent="1">
          <mxGeometry x="2294.36" y="-2408.9" width="65.32" height="35" as="geometry" />
        </mxCell>
        <mxCell id="rPpRlWSM9VwXYQuEdTf5-395" value="password" style="ellipse;whiteSpace=wrap;html=1;" vertex="1" parent="1">
          <mxGeometry x="2291.8500000000004" y="-2368.9" width="65.32" height="35" as="geometry" />
        </mxCell>
        <mxCell id="rPpRlWSM9VwXYQuEdTf5-396" value="" style="endArrow=none;html=1;rounded=0;" edge="1" parent="1">
          <mxGeometry width="50" height="50" relative="1" as="geometry">
            <mxPoint x="2244.8900000000003" y="-2360" as="sourcePoint" />
            <mxPoint x="2294.36" y="-2356.1" as="targetPoint" />
          </mxGeometry>
        </mxCell>
        <mxCell id="rPpRlWSM9VwXYQuEdTf5-397" value="" style="endArrow=none;html=1;rounded=0;" edge="1" parent="1">
          <mxGeometry relative="1" as="geometry">
            <mxPoint x="2234.12" y="-2460" as="sourcePoint" />
            <mxPoint x="2272.27" y="-2460" as="targetPoint" />
          </mxGeometry>
        </mxCell>
        <mxCell id="rPpRlWSM9VwXYQuEdTf5-400" value="" style="endArrow=none;html=1;rounded=0;exitX=0;exitY=0.25;exitDx=0;exitDy=0;" edge="1" parent="1" source="rPpRlWSM9VwXYQuEdTf5-48">
          <mxGeometry width="50" height="50" relative="1" as="geometry">
            <mxPoint x="1969.35" y="-1841.25" as="sourcePoint" />
            <mxPoint x="1930" y="-1850" as="targetPoint" />
          </mxGeometry>
        </mxCell>
        <mxCell id="rPpRlWSM9VwXYQuEdTf5-401" value="&lt;font style=&quot;font-size: 10px;&quot;&gt;store_name&lt;/font&gt;" style="ellipse;whiteSpace=wrap;html=1;" vertex="1" parent="1">
          <mxGeometry x="1920" y="-1900" width="50" height="30" as="geometry" />
        </mxCell>
        <mxCell id="rPpRlWSM9VwXYQuEdTf5-408" value="date" style="ellipse;whiteSpace=wrap;html=1;" vertex="1" parent="1">
          <mxGeometry x="2051.25" y="-1990" width="47.5" height="26.83" as="geometry" />
        </mxCell>
        <mxCell id="rPpRlWSM9VwXYQuEdTf5-409" value="follow_id" style="ellipse;whiteSpace=wrap;html=1;" vertex="1" parent="1">
          <mxGeometry x="2102.5" y="-2020" width="47.5" height="26.83" as="geometry" />
        </mxCell>
        <mxCell id="rPpRlWSM9VwXYQuEdTf5-410" value="" style="endArrow=none;html=1;rounded=0;" edge="1" parent="1">
          <mxGeometry relative="1" as="geometry">
            <mxPoint x="2110.93" y="-2000" as="sourcePoint" />
            <mxPoint x="2138.43" y="-2000" as="targetPoint" />
          </mxGeometry>
        </mxCell>
        <mxCell id="rPpRlWSM9VwXYQuEdTf5-412" value="" style="endArrow=none;html=1;rounded=0;exitX=0.151;exitY=0.017;exitDx=0;exitDy=0;exitPerimeter=0;" edge="1" parent="1" source="rPpRlWSM9VwXYQuEdTf5-4">
          <mxGeometry width="50" height="50" relative="1" as="geometry">
            <mxPoint x="1695" y="-1965" as="sourcePoint" />
            <mxPoint x="1680" y="-2020" as="targetPoint" />
          </mxGeometry>
        </mxCell>
        <mxCell id="rPpRlWSM9VwXYQuEdTf5-421" value="" style="endArrow=none;html=1;rounded=0;exitX=0.151;exitY=0.017;exitDx=0;exitDy=0;exitPerimeter=0;" edge="1" parent="1">
          <mxGeometry width="50" height="50" relative="1" as="geometry">
            <mxPoint x="1727.14" y="-1976.83" as="sourcePoint" />
            <mxPoint x="1727.14" y="-2007.83" as="targetPoint" />
          </mxGeometry>
        </mxCell>
        <mxCell id="rPpRlWSM9VwXYQuEdTf5-422" value="" style="endArrow=none;html=1;rounded=0;exitX=0.151;exitY=0.017;exitDx=0;exitDy=0;exitPerimeter=0;entryX=0.5;entryY=1;entryDx=0;entryDy=0;" edge="1" parent="1" target="rPpRlWSM9VwXYQuEdTf5-427">
          <mxGeometry width="50" height="50" relative="1" as="geometry">
            <mxPoint x="1749.64" y="-1977.41" as="sourcePoint" />
            <mxPoint x="1749.64" y="-2008.41" as="targetPoint" />
          </mxGeometry>
        </mxCell>
        <mxCell id="rPpRlWSM9VwXYQuEdTf5-423" value="" style="endArrow=none;html=1;rounded=0;exitX=0.151;exitY=0.017;exitDx=0;exitDy=0;exitPerimeter=0;" edge="1" parent="1">
          <mxGeometry width="50" height="50" relative="1" as="geometry">
            <mxPoint x="1784.64" y="-1976.83" as="sourcePoint" />
            <mxPoint x="1784.64" y="-2007.83" as="targetPoint" />
          </mxGeometry>
        </mxCell>
        <mxCell id="rPpRlWSM9VwXYQuEdTf5-424" value="" style="ellipse;whiteSpace=wrap;html=1;" vertex="1" parent="1">
          <mxGeometry x="1762.5" y="-2042.5" width="60" height="40" as="geometry" />
        </mxCell>
        <mxCell id="rPpRlWSM9VwXYQuEdTf5-426" value="image" style="ellipse;whiteSpace=wrap;html=1;" vertex="1" parent="1">
          <mxGeometry x="1766.87" y="-2039.66" width="51.25" height="34.66" as="geometry" />
        </mxCell>
        <mxCell id="rPpRlWSM9VwXYQuEdTf5-427" value="rating" style="ellipse;whiteSpace=wrap;html=1;" vertex="1" parent="1">
          <mxGeometry x="1728.75" y="-2074.32" width="51.25" height="34.66" as="geometry" />
        </mxCell>
        <mxCell id="rPpRlWSM9VwXYQuEdTf5-428" value="title" style="ellipse;whiteSpace=wrap;html=1;" vertex="1" parent="1">
          <mxGeometry x="1645" y="-2038.4100000000003" width="51.25" height="34.66" as="geometry" />
        </mxCell>
        <mxCell id="rPpRlWSM9VwXYQuEdTf5-429" value="id" style="ellipse;whiteSpace=wrap;html=1;" vertex="1" parent="1">
          <mxGeometry x="1700" y="-2038.41" width="51.25" height="34.66" as="geometry" />
        </mxCell>
        <mxCell id="rPpRlWSM9VwXYQuEdTf5-430" value="" style="endArrow=none;html=1;rounded=0;" edge="1" parent="1">
          <mxGeometry relative="1" as="geometry">
            <mxPoint x="1711.88" y="-2012.5" as="sourcePoint" />
            <mxPoint x="1739.38" y="-2012.5" as="targetPoint" />
          </mxGeometry>
        </mxCell>
        <mxCell id="rPpRlWSM9VwXYQuEdTf5-431" value="" style="endArrow=none;html=1;rounded=0;" edge="1" parent="1" source="rPpRlWSM9VwXYQuEdTf5-434">
          <mxGeometry width="50" height="50" relative="1" as="geometry">
            <mxPoint x="1640" y="-1360" as="sourcePoint" />
            <mxPoint x="1680.17" y="-1400" as="targetPoint" />
          </mxGeometry>
        </mxCell>
        <mxCell id="rPpRlWSM9VwXYQuEdTf5-432" value="" style="endArrow=none;html=1;rounded=0;exitX=0.007;exitY=0.607;exitDx=0;exitDy=0;exitPerimeter=0;" edge="1" parent="1" source="rPpRlWSM9VwXYQuEdTf5-84" target="rPpRlWSM9VwXYQuEdTf5-433">
          <mxGeometry width="50" height="50" relative="1" as="geometry">
            <mxPoint x="1590" y="-1430" as="sourcePoint" />
            <mxPoint x="1645" y="-1430" as="targetPoint" />
          </mxGeometry>
        </mxCell>
        <mxCell id="rPpRlWSM9VwXYQuEdTf5-433" value="category_id" style="ellipse;whiteSpace=wrap;html=1;" vertex="1" parent="1">
          <mxGeometry x="1560" y="-1450" width="65" height="40" as="geometry" />
        </mxCell>
        <mxCell id="rPpRlWSM9VwXYQuEdTf5-435" value="" style="endArrow=none;html=1;rounded=0;" edge="1" parent="1" target="rPpRlWSM9VwXYQuEdTf5-434">
          <mxGeometry width="50" height="50" relative="1" as="geometry">
            <mxPoint x="1640" y="-1360" as="sourcePoint" />
            <mxPoint x="1680.17" y="-1400" as="targetPoint" />
          </mxGeometry>
        </mxCell>
        <mxCell id="rPpRlWSM9VwXYQuEdTf5-434" value="name" style="ellipse;whiteSpace=wrap;html=1;" vertex="1" parent="1">
          <mxGeometry x="1595" y="-1390" width="60" height="40" as="geometry" />
        </mxCell>
        <mxCell id="rPpRlWSM9VwXYQuEdTf5-436" value="" style="endArrow=none;html=1;rounded=0;" edge="1" parent="1">
          <mxGeometry relative="1" as="geometry">
            <mxPoint x="1578.75" y="-1420" as="sourcePoint" />
            <mxPoint x="1606.25" y="-1420" as="targetPoint" />
          </mxGeometry>
        </mxCell>
        <mxCell id="rPpRlWSM9VwXYQuEdTf5-437" value="" style="endArrow=none;html=1;rounded=0;entryX=0.5;entryY=1;entryDx=0;entryDy=0;" edge="1" parent="1" target="rPpRlWSM9VwXYQuEdTf5-64">
          <mxGeometry width="50" height="50" relative="1" as="geometry">
            <mxPoint x="1990" y="-1440" as="sourcePoint" />
            <mxPoint x="2040" y="-1530" as="targetPoint" />
          </mxGeometry>
        </mxCell>
        <mxCell id="rPpRlWSM9VwXYQuEdTf5-438" value="" style="endArrow=none;html=1;rounded=0;" edge="1" parent="1">
          <mxGeometry width="50" height="50" relative="1" as="geometry">
            <mxPoint x="2020" y="-1480" as="sourcePoint" />
            <mxPoint x="2001" y="-1520" as="targetPoint" />
          </mxGeometry>
        </mxCell>
        <mxCell id="rPpRlWSM9VwXYQuEdTf5-439" value="" style="endArrow=none;html=1;rounded=0;exitX=0.848;exitY=0.925;exitDx=0;exitDy=0;exitPerimeter=0;" edge="1" parent="1" source="rPpRlWSM9VwXYQuEdTf5-64">
          <mxGeometry width="50" height="50" relative="1" as="geometry">
            <mxPoint x="2010" y="-1470" as="sourcePoint" />
            <mxPoint x="2070" y="-1460" as="targetPoint" />
          </mxGeometry>
        </mxCell>
        <mxCell id="rPpRlWSM9VwXYQuEdTf5-440" value="" style="endArrow=none;html=1;rounded=0;entryX=1;entryY=0.75;entryDx=0;entryDy=0;" edge="1" parent="1" source="rPpRlWSM9VwXYQuEdTf5-444" target="rPpRlWSM9VwXYQuEdTf5-64">
          <mxGeometry width="50" height="50" relative="1" as="geometry">
            <mxPoint x="2090" y="-1500" as="sourcePoint" />
            <mxPoint x="2020" y="-1490" as="targetPoint" />
          </mxGeometry>
        </mxCell>
        <mxCell id="rPpRlWSM9VwXYQuEdTf5-441" value="" style="endArrow=none;html=1;rounded=0;" edge="1" parent="1">
          <mxGeometry width="50" height="50" relative="1" as="geometry">
            <mxPoint x="1969" y="-1560" as="sourcePoint" />
            <mxPoint x="1950" y="-1600" as="targetPoint" />
          </mxGeometry>
        </mxCell>
        <mxCell id="rPpRlWSM9VwXYQuEdTf5-442" value="" style="endArrow=none;html=1;rounded=0;exitX=0.75;exitY=0;exitDx=0;exitDy=0;" edge="1" parent="1" source="rPpRlWSM9VwXYQuEdTf5-64">
          <mxGeometry width="50" height="50" relative="1" as="geometry">
            <mxPoint x="1979" y="-1550" as="sourcePoint" />
            <mxPoint x="2020" y="-1600" as="targetPoint" />
          </mxGeometry>
        </mxCell>
        <mxCell id="rPpRlWSM9VwXYQuEdTf5-443" value="" style="endArrow=none;html=1;rounded=0;entryX=0.5;entryY=1;entryDx=0;entryDy=0;exitX=1;exitY=0.5;exitDx=0;exitDy=0;" edge="1" parent="1" source="rPpRlWSM9VwXYQuEdTf5-95">
          <mxGeometry width="50" height="50" relative="1" as="geometry">
            <mxPoint x="1972.5" y="-1490" as="sourcePoint" />
            <mxPoint x="1972.5" y="-1520" as="targetPoint" />
          </mxGeometry>
        </mxCell>
        <mxCell id="rPpRlWSM9VwXYQuEdTf5-444" value="descp" style="ellipse;whiteSpace=wrap;html=1;" vertex="1" parent="1">
          <mxGeometry x="2048.75" y="-1510" width="50" height="30" as="geometry" />
        </mxCell>
        <mxCell id="rPpRlWSM9VwXYQuEdTf5-445" value="isFlash" style="ellipse;whiteSpace=wrap;html=1;" vertex="1" parent="1">
          <mxGeometry x="2044.68" y="-1480" width="50" height="30" as="geometry" />
        </mxCell>
        <mxCell id="rPpRlWSM9VwXYQuEdTf5-446" value="stock" style="ellipse;whiteSpace=wrap;html=1;" vertex="1" parent="1">
          <mxGeometry x="1994.68" y="-1485" width="50" height="30" as="geometry" />
        </mxCell>
        <mxCell id="rPpRlWSM9VwXYQuEdTf5-447" value="&lt;font style=&quot;font-size: 11px;&quot;&gt;isBestSeller&lt;/font&gt;" style="ellipse;whiteSpace=wrap;html=1;" vertex="1" parent="1">
          <mxGeometry x="1972.5" y="-1453.75" width="57.5" height="43.75" as="geometry" />
        </mxCell>
        <mxCell id="rPpRlWSM9VwXYQuEdTf5-448" value="prdct_id" style="ellipse;whiteSpace=wrap;html=1;" vertex="1" parent="1">
          <mxGeometry x="1940" y="-1480" width="50" height="30" as="geometry" />
        </mxCell>
        <mxCell id="rPpRlWSM9VwXYQuEdTf5-449" value="price" style="ellipse;whiteSpace=wrap;html=1;" vertex="1" parent="1">
          <mxGeometry x="2000" y="-1622.5" width="50" height="30" as="geometry" />
        </mxCell>
        <mxCell id="rPpRlWSM9VwXYQuEdTf5-450" value="name" style="ellipse;whiteSpace=wrap;html=1;" vertex="1" parent="1">
          <mxGeometry x="1930" y="-1622.5" width="50" height="30" as="geometry" />
        </mxCell>
        <mxCell id="rPpRlWSM9VwXYQuEdTf5-451" value="" style="endArrow=none;html=1;rounded=0;" edge="1" parent="1">
          <mxGeometry relative="1" as="geometry">
            <mxPoint x="1951.25" y="-1455.71" as="sourcePoint" />
            <mxPoint x="1978.75" y="-1455.71" as="targetPoint" />
          </mxGeometry>
        </mxCell>
        <mxCell id="rPpRlWSM9VwXYQuEdTf5-452" value="" style="endArrow=none;html=1;rounded=0;" edge="1" parent="1" source="rPpRlWSM9VwXYQuEdTf5-456">
          <mxGeometry width="50" height="50" relative="1" as="geometry">
            <mxPoint x="1740" y="-1550" as="sourcePoint" />
            <mxPoint x="1740" y="-1600" as="targetPoint" />
          </mxGeometry>
        </mxCell>
        <mxCell id="rPpRlWSM9VwXYQuEdTf5-453" value="" style="endArrow=none;html=1;rounded=0;" edge="1" parent="1" source="rPpRlWSM9VwXYQuEdTf5-454" target="rPpRlWSM9VwXYQuEdTf5-69">
          <mxGeometry relative="1" as="geometry">
            <mxPoint x="1630" y="-1600" as="sourcePoint" />
            <mxPoint x="1600" y="-1507.5" as="targetPoint" />
          </mxGeometry>
        </mxCell>
        <mxCell id="rPpRlWSM9VwXYQuEdTf5-455" value="" style="endArrow=none;html=1;rounded=0;" edge="1" parent="1" target="rPpRlWSM9VwXYQuEdTf5-454">
          <mxGeometry relative="1" as="geometry">
            <mxPoint x="1630" y="-1600" as="sourcePoint" />
            <mxPoint x="1658" y="-1570" as="targetPoint" />
          </mxGeometry>
        </mxCell>
        <mxCell id="rPpRlWSM9VwXYQuEdTf5-454" value="name" style="ellipse;whiteSpace=wrap;html=1;" vertex="1" parent="1">
          <mxGeometry x="1595" y="-1615" width="60" height="30" as="geometry" />
        </mxCell>
        <mxCell id="rPpRlWSM9VwXYQuEdTf5-457" value="" style="endArrow=none;html=1;rounded=0;" edge="1" parent="1" source="rPpRlWSM9VwXYQuEdTf5-69" target="rPpRlWSM9VwXYQuEdTf5-456">
          <mxGeometry width="50" height="50" relative="1" as="geometry">
            <mxPoint x="1713" y="-1570" as="sourcePoint" />
            <mxPoint x="1740" y="-1600" as="targetPoint" />
          </mxGeometry>
        </mxCell>
        <mxCell id="rPpRlWSM9VwXYQuEdTf5-456" value="brand_id" style="ellipse;whiteSpace=wrap;html=1;" vertex="1" parent="1">
          <mxGeometry x="1706.87" y="-1615" width="60" height="30" as="geometry" />
        </mxCell>
        <mxCell id="rPpRlWSM9VwXYQuEdTf5-458" value="" style="endArrow=none;html=1;rounded=0;" edge="1" parent="1">
          <mxGeometry relative="1" as="geometry">
            <mxPoint x="1721.25" y="-1592.5" as="sourcePoint" />
            <mxPoint x="1748.75" y="-1592.5" as="targetPoint" />
          </mxGeometry>
        </mxCell>
        <mxCell id="rPpRlWSM9VwXYQuEdTf5-459" value="&lt;span style=&quot;font-size: 15px;&quot;&gt;&lt;b&gt;N&lt;/b&gt;&lt;/span&gt;" style="text;html=1;align=center;verticalAlign=middle;whiteSpace=wrap;rounded=0;" vertex="1" parent="1">
          <mxGeometry x="2055" y="-1410" width="70" height="50" as="geometry" />
        </mxCell>
        <mxCell id="rPpRlWSM9VwXYQuEdTf5-460" value="&lt;span style=&quot;font-size: 15px;&quot;&gt;&lt;b&gt;1&lt;/b&gt;&lt;/span&gt;" style="text;html=1;align=center;verticalAlign=middle;whiteSpace=wrap;rounded=0;" vertex="1" parent="1">
          <mxGeometry x="2132.5" y="-1443.75" width="70" height="50" as="geometry" />
        </mxCell>
        <mxCell id="rPpRlWSM9VwXYQuEdTf5-461" value="" style="endArrow=none;html=1;rounded=0;" edge="1" parent="1" source="rPpRlWSM9VwXYQuEdTf5-463">
          <mxGeometry width="50" height="50" relative="1" as="geometry">
            <mxPoint x="2056.2599999999998" y="-1300" as="sourcePoint" />
            <mxPoint x="2360" y="-1550" as="targetPoint" />
          </mxGeometry>
        </mxCell>
        <mxCell id="rPpRlWSM9VwXYQuEdTf5-463" value="price" style="ellipse;whiteSpace=wrap;html=1;" vertex="1" parent="1">
          <mxGeometry x="2405" y="-1530" width="60" height="30" as="geometry" />
        </mxCell>
        <mxCell id="rPpRlWSM9VwXYQuEdTf5-465" value="" style="endArrow=none;html=1;rounded=0;entryX=0.141;entryY=0.968;entryDx=0;entryDy=0;entryPerimeter=0;" edge="1" parent="1" source="rPpRlWSM9VwXYQuEdTf5-466" target="rPpRlWSM9VwXYQuEdTf5-92">
          <mxGeometry width="50" height="50" relative="1" as="geometry">
            <mxPoint x="1667.2000000000003" y="-1287" as="sourcePoint" />
            <mxPoint x="1741.25" y="-1400" as="targetPoint" />
          </mxGeometry>
        </mxCell>
        <mxCell id="rPpRlWSM9VwXYQuEdTf5-466" value="amount" style="ellipse;whiteSpace=wrap;html=1;" vertex="1" parent="1">
          <mxGeometry x="1743.75" y="-1310.44" width="56.25" height="30.44" as="geometry" />
        </mxCell>
        <mxCell id="rPpRlWSM9VwXYQuEdTf5-472" value="&lt;font style=&quot;font-size: 8px;&quot;&gt;min_purchase_amount&lt;/font&gt;" style="ellipse;whiteSpace=wrap;html=1;" vertex="1" parent="1">
          <mxGeometry x="1851.8" y="-1275" width="88.2" height="45" as="geometry" />
        </mxCell>
        <mxCell id="rPpRlWSM9VwXYQuEdTf5-473" value="" style="endArrow=none;html=1;rounded=0;" edge="1" parent="1" source="rPpRlWSM9VwXYQuEdTf5-474">
          <mxGeometry width="50" height="50" relative="1" as="geometry">
            <mxPoint x="1835.95" y="-1323" as="sourcePoint" />
            <mxPoint x="1868.1200000000001" y="-1340" as="targetPoint" />
          </mxGeometry>
        </mxCell>
        <mxCell id="rPpRlWSM9VwXYQuEdTf5-474" value="type" style="ellipse;whiteSpace=wrap;html=1;" vertex="1" parent="1">
          <mxGeometry x="1912.5" y="-1303" width="60" height="30" as="geometry" />
        </mxCell>
        <mxCell id="rPpRlWSM9VwXYQuEdTf5-475" value="" style="endArrow=none;html=1;rounded=0;entryX=0;entryY=0.75;entryDx=0;entryDy=0;" edge="1" parent="1" source="rPpRlWSM9VwXYQuEdTf5-476" target="rPpRlWSM9VwXYQuEdTf5-92">
          <mxGeometry width="50" height="50" relative="1" as="geometry">
            <mxPoint x="1583.4499999999998" y="-1331.5" as="sourcePoint" />
            <mxPoint x="1815" y="-1380" as="targetPoint" />
          </mxGeometry>
        </mxCell>
        <mxCell id="rPpRlWSM9VwXYQuEdTf5-476" value="discount_id" style="ellipse;whiteSpace=wrap;html=1;" vertex="1" parent="1">
          <mxGeometry x="1660" y="-1311.5" width="60" height="30" as="geometry" />
        </mxCell>
        <mxCell id="rPpRlWSM9VwXYQuEdTf5-478" value="qnt" style="ellipse;whiteSpace=wrap;html=1;" vertex="1" parent="1">
          <mxGeometry x="2311" y="-1515" width="60" height="33.69" as="geometry" />
        </mxCell>
        <mxCell id="rPpRlWSM9VwXYQuEdTf5-482" value="" style="endArrow=none;html=1;rounded=0;entryX=0.5;entryY=1;entryDx=0;entryDy=0;" edge="1" parent="1" target="rPpRlWSM9VwXYQuEdTf5-328">
          <mxGeometry width="50" height="50" relative="1" as="geometry">
            <mxPoint x="2276.665888144268" y="-1514.1072816775059" as="sourcePoint" />
            <mxPoint x="2320" y="-1490" as="targetPoint" />
          </mxGeometry>
        </mxCell>
        <mxCell id="rPpRlWSM9VwXYQuEdTf5-483" value="" style="endArrow=none;html=1;rounded=0;" edge="1" parent="1">
          <mxGeometry relative="1" as="geometry">
            <mxPoint x="1676.25" y="-1288.42" as="sourcePoint" />
            <mxPoint x="1703.75" y="-1288.42" as="targetPoint" />
          </mxGeometry>
        </mxCell>
        <mxCell id="rPpRlWSM9VwXYQuEdTf5-485" value="" style="endArrow=none;html=1;rounded=0;exitX=1;exitY=0;exitDx=0;exitDy=0;" edge="1" parent="1" source="rPpRlWSM9VwXYQuEdTf5-120" target="rPpRlWSM9VwXYQuEdTf5-489">
          <mxGeometry width="50" height="50" relative="1" as="geometry">
            <mxPoint x="2130" y="-1780" as="sourcePoint" />
            <mxPoint x="2150" y="-1830" as="targetPoint" />
          </mxGeometry>
        </mxCell>
        <mxCell id="rPpRlWSM9VwXYQuEdTf5-489" value="isActive" style="ellipse;whiteSpace=wrap;html=1;" vertex="1" parent="1">
          <mxGeometry x="2079.35" y="-1831.25" width="60" height="30" as="geometry" />
        </mxCell>
        <mxCell id="rPpRlWSM9VwXYQuEdTf5-490" value="fav_id" style="ellipse;whiteSpace=wrap;html=1;" vertex="1" parent="1">
          <mxGeometry x="2040" y="-1882.5" width="60" height="30" as="geometry" />
        </mxCell>
        <mxCell id="rPpRlWSM9VwXYQuEdTf5-491" value="date" style="ellipse;whiteSpace=wrap;html=1;" vertex="1" parent="1">
          <mxGeometry x="2060" y="-1761.87" width="60" height="31.25" as="geometry" />
        </mxCell>
        <mxCell id="rPpRlWSM9VwXYQuEdTf5-494" value="" style="endArrow=none;html=1;rounded=0;" edge="1" parent="1" source="rPpRlWSM9VwXYQuEdTf5-132">
          <mxGeometry width="50" height="50" relative="1" as="geometry">
            <mxPoint x="2310" y="-1760" as="sourcePoint" />
            <mxPoint x="2280" y="-1740" as="targetPoint" />
          </mxGeometry>
        </mxCell>
        <mxCell id="rPpRlWSM9VwXYQuEdTf5-497" value="" style="endArrow=none;html=1;rounded=0;exitX=0.993;exitY=0.876;exitDx=0;exitDy=0;exitPerimeter=0;" edge="1" parent="1" source="rPpRlWSM9VwXYQuEdTf5-172">
          <mxGeometry width="50" height="50" relative="1" as="geometry">
            <mxPoint x="2530" y="-1780" as="sourcePoint" />
            <mxPoint x="2670" y="-1790" as="targetPoint" />
          </mxGeometry>
        </mxCell>
        <mxCell id="rPpRlWSM9VwXYQuEdTf5-498" value="" style="endArrow=none;html=1;rounded=0;exitX=0.943;exitY=1.009;exitDx=0;exitDy=0;exitPerimeter=0;" edge="1" parent="1" source="rPpRlWSM9VwXYQuEdTf5-172">
          <mxGeometry width="50" height="50" relative="1" as="geometry">
            <mxPoint x="2619" y="-1798" as="sourcePoint" />
            <mxPoint x="2650" y="-1750" as="targetPoint" />
          </mxGeometry>
        </mxCell>
        <mxCell id="rPpRlWSM9VwXYQuEdTf5-499" value="" style="endArrow=none;html=1;rounded=0;exitX=0.989;exitY=0.62;exitDx=0;exitDy=0;exitPerimeter=0;" edge="1" parent="1" source="rPpRlWSM9VwXYQuEdTf5-172">
          <mxGeometry width="50" height="50" relative="1" as="geometry">
            <mxPoint x="2629" y="-1788" as="sourcePoint" />
            <mxPoint x="2670" y="-1820" as="targetPoint" />
          </mxGeometry>
        </mxCell>
        <mxCell id="rPpRlWSM9VwXYQuEdTf5-501" value="total" style="ellipse;whiteSpace=wrap;html=1;" vertex="1" parent="1">
          <mxGeometry x="2666.25" y="-1797.5" width="53.75" height="27.5" as="geometry" />
        </mxCell>
        <mxCell id="rPpRlWSM9VwXYQuEdTf5-502" value="date" style="ellipse;whiteSpace=wrap;html=1;" vertex="1" parent="1">
          <mxGeometry x="2643.75" y="-1760" width="53.75" height="27.5" as="geometry" />
        </mxCell>
        <mxCell id="rPpRlWSM9VwXYQuEdTf5-504" value="" style="endArrow=none;html=1;rounded=0;" edge="1" parent="1">
          <mxGeometry width="50" height="50" relative="1" as="geometry">
            <mxPoint x="2393" y="-2303.9" as="sourcePoint" />
            <mxPoint x="2420" y="-2330" as="targetPoint" />
          </mxGeometry>
        </mxCell>
        <mxCell id="rPpRlWSM9VwXYQuEdTf5-505" value="" style="endArrow=none;html=1;rounded=0;" edge="1" parent="1">
          <mxGeometry width="50" height="50" relative="1" as="geometry">
            <mxPoint x="2408" y="-2296.25" as="sourcePoint" />
            <mxPoint x="2445" y="-2303.75" as="targetPoint" />
          </mxGeometry>
        </mxCell>
        <mxCell id="rPpRlWSM9VwXYQuEdTf5-508" value="start_date" style="ellipse;whiteSpace=wrap;html=1;" vertex="1" parent="1">
          <mxGeometry x="2410" y="-2348.9" width="50" height="30" as="geometry" />
        </mxCell>
        <mxCell id="rPpRlWSM9VwXYQuEdTf5-509" value="end_date" style="ellipse;whiteSpace=wrap;html=1;" vertex="1" parent="1">
          <mxGeometry x="2440" y="-2318.75" width="50" height="30" as="geometry" />
        </mxCell>
        <mxCell id="rPpRlWSM9VwXYQuEdTf5-510" value="" style="endArrow=none;html=1;rounded=0;entryX=0.033;entryY=0.717;entryDx=0;entryDy=0;entryPerimeter=0;" edge="1" parent="1" source="rPpRlWSM9VwXYQuEdTf5-155" target="Ck_vDfP_zAcGL2_wQchA-1">
          <mxGeometry width="50" height="50" relative="1" as="geometry">
            <mxPoint x="2270" y="-1930" as="sourcePoint" />
            <mxPoint x="2320" y="-1980" as="targetPoint" />
          </mxGeometry>
        </mxCell>
        <mxCell id="rPpRlWSM9VwXYQuEdTf5-513" value="date" style="ellipse;whiteSpace=wrap;html=1;" vertex="1" parent="1">
          <mxGeometry x="2282.5" y="-1930" width="50" height="30" as="geometry" />
        </mxCell>
        <mxCell id="rPpRlWSM9VwXYQuEdTf5-515" value="" style="endArrow=none;html=1;rounded=0;exitX=1;exitY=0;exitDx=0;exitDy=0;" edge="1" parent="1" source="rPpRlWSM9VwXYQuEdTf5-340">
          <mxGeometry width="50" height="50" relative="1" as="geometry">
            <mxPoint x="2870" y="-1430" as="sourcePoint" />
            <mxPoint x="2970" y="-1490" as="targetPoint" />
          </mxGeometry>
        </mxCell>
        <mxCell id="rPpRlWSM9VwXYQuEdTf5-516" value="" style="endArrow=none;html=1;rounded=0;exitX=0.995;exitY=0.367;exitDx=0;exitDy=0;exitPerimeter=0;" edge="1" parent="1" source="rPpRlWSM9VwXYQuEdTf5-340">
          <mxGeometry width="50" height="50" relative="1" as="geometry">
            <mxPoint x="2940" y="-1440" as="sourcePoint" />
            <mxPoint x="3020" y="-1450" as="targetPoint" />
          </mxGeometry>
        </mxCell>
        <mxCell id="rPpRlWSM9VwXYQuEdTf5-517" value="" style="endArrow=none;html=1;rounded=0;exitX=0.995;exitY=0.367;exitDx=0;exitDy=0;exitPerimeter=0;" edge="1" parent="1">
          <mxGeometry width="50" height="50" relative="1" as="geometry">
            <mxPoint x="2942" y="-1432.22" as="sourcePoint" />
            <mxPoint x="3000" y="-1432.22" as="targetPoint" />
          </mxGeometry>
        </mxCell>
        <mxCell id="rPpRlWSM9VwXYQuEdTf5-518" value="" style="endArrow=none;html=1;rounded=0;exitX=0.995;exitY=0.367;exitDx=0;exitDy=0;exitPerimeter=0;" edge="1" parent="1">
          <mxGeometry width="50" height="50" relative="1" as="geometry">
            <mxPoint x="2942" y="-1415" as="sourcePoint" />
            <mxPoint x="2990" y="-1390" as="targetPoint" />
          </mxGeometry>
        </mxCell>
        <mxCell id="rPpRlWSM9VwXYQuEdTf5-519" value="" style="endArrow=none;html=1;rounded=0;exitX=0.802;exitY=1.047;exitDx=0;exitDy=0;exitPerimeter=0;" edge="1" parent="1" source="rPpRlWSM9VwXYQuEdTf5-340">
          <mxGeometry width="50" height="50" relative="1" as="geometry">
            <mxPoint x="2912.5" y="-1400.69" as="sourcePoint" />
            <mxPoint x="2950" y="-1360" as="targetPoint" />
          </mxGeometry>
        </mxCell>
        <mxCell id="rPpRlWSM9VwXYQuEdTf5-520" value="status" style="ellipse;whiteSpace=wrap;html=1;" vertex="1" parent="1">
          <mxGeometry x="2950" y="-1511.31" width="60" height="30" as="geometry" />
        </mxCell>
        <mxCell id="rPpRlWSM9VwXYQuEdTf5-521" value="shipping_date" style="ellipse;whiteSpace=wrap;html=1;" vertex="1" parent="1">
          <mxGeometry x="3010" y="-1470" width="80" height="30" as="geometry" />
        </mxCell>
        <mxCell id="rPpRlWSM9VwXYQuEdTf5-522" value="expected_date" style="ellipse;whiteSpace=wrap;html=1;" vertex="1" parent="1">
          <mxGeometry x="2985" y="-1440" width="95" height="30" as="geometry" />
        </mxCell>
        <mxCell id="rPpRlWSM9VwXYQuEdTf5-523" value="arrival_date" style="ellipse;whiteSpace=wrap;html=1;" vertex="1" parent="1">
          <mxGeometry x="2976.25" y="-1400" width="73.75" height="30" as="geometry" />
        </mxCell>
        <mxCell id="rPpRlWSM9VwXYQuEdTf5-525" value="" style="endArrow=none;html=1;rounded=0;exitX=1.004;exitY=0.369;exitDx=0;exitDy=0;exitPerimeter=0;" edge="1" parent="1" source="rPpRlWSM9VwXYQuEdTf5-354">
          <mxGeometry width="50" height="50" relative="1" as="geometry">
            <mxPoint x="2940" y="-1220" as="sourcePoint" />
            <mxPoint x="3010" y="-1230" as="targetPoint" />
          </mxGeometry>
        </mxCell>
        <mxCell id="rPpRlWSM9VwXYQuEdTf5-526" value="" style="endArrow=none;html=1;rounded=0;exitX=1;exitY=0.75;exitDx=0;exitDy=0;" edge="1" parent="1" source="rPpRlWSM9VwXYQuEdTf5-354">
          <mxGeometry width="50" height="50" relative="1" as="geometry">
            <mxPoint x="2953" y="-1218" as="sourcePoint" />
            <mxPoint x="3020" y="-1190" as="targetPoint" />
          </mxGeometry>
        </mxCell>
        <mxCell id="rPpRlWSM9VwXYQuEdTf5-527" value="" style="endArrow=none;html=1;rounded=0;" edge="1" parent="1" source="rPpRlWSM9VwXYQuEdTf5-354">
          <mxGeometry width="50" height="50" relative="1" as="geometry">
            <mxPoint x="2922" y="-1170" as="sourcePoint" />
            <mxPoint x="2950" y="-1160" as="targetPoint" />
          </mxGeometry>
        </mxCell>
        <mxCell id="rPpRlWSM9VwXYQuEdTf5-528" value="carrier_id" style="ellipse;whiteSpace=wrap;html=1;" vertex="1" parent="1">
          <mxGeometry x="2980" y="-1250" width="70" height="30" as="geometry" />
        </mxCell>
        <mxCell id="rPpRlWSM9VwXYQuEdTf5-529" value="name" style="ellipse;whiteSpace=wrap;html=1;" vertex="1" parent="1">
          <mxGeometry x="2990" y="-1205" width="70" height="30" as="geometry" />
        </mxCell>
        <mxCell id="rPpRlWSM9VwXYQuEdTf5-530" value="contact" style="ellipse;whiteSpace=wrap;html=1;" vertex="1" parent="1">
          <mxGeometry x="2930" y="-1170" width="70" height="30" as="geometry" />
        </mxCell>
        <mxCell id="rPpRlWSM9VwXYQuEdTf5-532" value="" style="endArrow=none;html=1;rounded=0;" edge="1" parent="1">
          <mxGeometry relative="1" as="geometry">
            <mxPoint x="2996.25" y="-1230" as="sourcePoint" />
            <mxPoint x="3036.25" y="-1230" as="targetPoint" />
          </mxGeometry>
        </mxCell>
        <mxCell id="rPpRlWSM9VwXYQuEdTf5-533" value="" style="endArrow=none;html=1;rounded=0;" edge="1" parent="1" target="rPpRlWSM9VwXYQuEdTf5-264">
          <mxGeometry width="50" height="50" relative="1" as="geometry">
            <mxPoint x="2621" y="-1936" as="sourcePoint" />
            <mxPoint x="2750" y="-1990" as="targetPoint" />
            <Array as="points">
              <mxPoint x="2663" y="-1960" />
            </Array>
          </mxGeometry>
        </mxCell>
        <mxCell id="rPpRlWSM9VwXYQuEdTf5-534" value="" style="endArrow=none;html=1;rounded=0;entryX=0.875;entryY=0.999;entryDx=0;entryDy=0;entryPerimeter=0;" edge="1" parent="1" source="rPpRlWSM9VwXYQuEdTf5-542" target="rPpRlWSM9VwXYQuEdTf5-227">
          <mxGeometry width="50" height="50" relative="1" as="geometry">
            <mxPoint x="2740" y="-1880" as="sourcePoint" />
            <mxPoint x="2725" y="-1946" as="targetPoint" />
          </mxGeometry>
        </mxCell>
        <mxCell id="rPpRlWSM9VwXYQuEdTf5-536" value="" style="endArrow=none;html=1;rounded=0;entryX=0.999;entryY=0.871;entryDx=0;entryDy=0;entryPerimeter=0;exitX=0;exitY=0.5;exitDx=0;exitDy=0;" edge="1" parent="1" source="rPpRlWSM9VwXYQuEdTf5-540" target="rPpRlWSM9VwXYQuEdTf5-227">
          <mxGeometry width="50" height="50" relative="1" as="geometry">
            <mxPoint x="2790" y="-1930" as="sourcePoint" />
            <mxPoint x="2745" y="-1926" as="targetPoint" />
          </mxGeometry>
        </mxCell>
        <mxCell id="rPpRlWSM9VwXYQuEdTf5-537" value="" style="endArrow=none;html=1;rounded=0;entryX=0.999;entryY=0.659;entryDx=0;entryDy=0;entryPerimeter=0;exitX=0.08;exitY=0.675;exitDx=0;exitDy=0;exitPerimeter=0;" edge="1" parent="1" source="rPpRlWSM9VwXYQuEdTf5-539" target="rPpRlWSM9VwXYQuEdTf5-227">
          <mxGeometry width="50" height="50" relative="1" as="geometry">
            <mxPoint x="2800" y="-1960" as="sourcePoint" />
            <mxPoint x="2755" y="-1916" as="targetPoint" />
          </mxGeometry>
        </mxCell>
        <mxCell id="rPpRlWSM9VwXYQuEdTf5-538" value="" style="endArrow=none;html=1;rounded=0;entryX=0.75;entryY=0;entryDx=0;entryDy=0;exitX=0.5;exitY=0;exitDx=0;exitDy=0;" edge="1" parent="1" source="rPpRlWSM9VwXYQuEdTf5-543" target="rPpRlWSM9VwXYQuEdTf5-227">
          <mxGeometry width="50" height="50" relative="1" as="geometry">
            <mxPoint x="2700" y="-1880" as="sourcePoint" />
            <mxPoint x="2765" y="-1906" as="targetPoint" />
          </mxGeometry>
        </mxCell>
        <mxCell id="rPpRlWSM9VwXYQuEdTf5-539" value="payment_id" style="ellipse;whiteSpace=wrap;html=1;" vertex="1" parent="1">
          <mxGeometry x="2795" y="-2030" width="72.5" height="30" as="geometry" />
        </mxCell>
        <mxCell id="rPpRlWSM9VwXYQuEdTf5-540" value="card_no" style="ellipse;whiteSpace=wrap;html=1;" vertex="1" parent="1">
          <mxGeometry x="2812.5" y="-1990" width="60" height="30" as="geometry" />
        </mxCell>
        <mxCell id="rPpRlWSM9VwXYQuEdTf5-541" value="type" style="ellipse;whiteSpace=wrap;html=1;" vertex="1" parent="1">
          <mxGeometry x="2768.75" y="-1962.5" width="60" height="30" as="geometry" />
        </mxCell>
        <mxCell id="rPpRlWSM9VwXYQuEdTf5-542" value="isDefault" style="ellipse;whiteSpace=wrap;html=1;" vertex="1" parent="1">
          <mxGeometry x="2682.5" y="-1950" width="60" height="30" as="geometry" />
        </mxCell>
        <mxCell id="rPpRlWSM9VwXYQuEdTf5-543" value="holder_name" style="ellipse;whiteSpace=wrap;html=1;" vertex="1" parent="1">
          <mxGeometry x="2748.75" y="-2060" width="80" height="30" as="geometry" />
        </mxCell>
        <mxCell id="rPpRlWSM9VwXYQuEdTf5-544" value="exp_date" style="ellipse;whiteSpace=wrap;html=1;" vertex="1" parent="1">
          <mxGeometry x="2563.75" y="-1945" width="60" height="30" as="geometry" />
        </mxCell>
        <mxCell id="rPpRlWSM9VwXYQuEdTf5-545" value="" style="endArrow=none;html=1;rounded=0;" edge="1" parent="1">
          <mxGeometry relative="1" as="geometry">
            <mxPoint x="2800" y="-2006.7" as="sourcePoint" />
            <mxPoint x="2855" y="-2007.0800000000002" as="targetPoint" />
          </mxGeometry>
        </mxCell>
        <mxCell id="rPpRlWSM9VwXYQuEdTf5-547" value="cvv" style="ellipse;whiteSpace=wrap;html=1;" vertex="1" parent="1">
          <mxGeometry x="2595" y="-2074.32" width="30" height="20" as="geometry" />
        </mxCell>
        <mxCell id="rPpRlWSM9VwXYQuEdTf5-552" value="cvv" style="ellipse;whiteSpace=wrap;html=1;" vertex="1" parent="1">
          <mxGeometry x="2655.63" y="-2135" width="30" height="20" as="geometry" />
        </mxCell>
        <mxCell id="rPpRlWSM9VwXYQuEdTf5-553" value="" style="endArrow=none;html=1;rounded=0;entryX=0.102;entryY=0.038;entryDx=0;entryDy=0;entryPerimeter=0;" edge="1" parent="1" target="rPpRlWSM9VwXYQuEdTf5-196">
          <mxGeometry width="50" height="50" relative="1" as="geometry">
            <mxPoint x="2680" y="-2230" as="sourcePoint" />
            <mxPoint x="2711.89" y="-2187.8975" as="targetPoint" />
          </mxGeometry>
        </mxCell>
        <mxCell id="rPpRlWSM9VwXYQuEdTf5-554" value="" style="endArrow=none;html=1;rounded=0;entryX=0.662;entryY=0.065;entryDx=0;entryDy=0;entryPerimeter=0;" edge="1" parent="1" target="rPpRlWSM9VwXYQuEdTf5-196">
          <mxGeometry width="50" height="50" relative="1" as="geometry">
            <mxPoint x="2810" y="-2220" as="sourcePoint" />
            <mxPoint x="2791.32" y="-2188.4049999999997" as="targetPoint" />
          </mxGeometry>
        </mxCell>
        <mxCell id="rPpRlWSM9VwXYQuEdTf5-556" value="phone" style="ellipse;whiteSpace=wrap;html=1;" vertex="1" parent="1">
          <mxGeometry x="2655" y="-2250" width="50" height="30" as="geometry" />
        </mxCell>
        <mxCell id="rPpRlWSM9VwXYQuEdTf5-558" value="address" style="ellipse;whiteSpace=wrap;html=1;" vertex="1" parent="1">
          <mxGeometry x="2870" y="-2177.5" width="50" height="30" as="geometry" />
        </mxCell>
        <mxCell id="rPpRlWSM9VwXYQuEdTf5-560" value="" style="endArrow=none;html=1;rounded=0;" edge="1" parent="1" target="rPpRlWSM9VwXYQuEdTf5-558">
          <mxGeometry width="50" height="50" relative="1" as="geometry">
            <mxPoint x="2913.75" y="-2202.5" as="sourcePoint" />
            <mxPoint x="2903.75" y="-2182.5" as="targetPoint" />
          </mxGeometry>
        </mxCell>
        <mxCell id="rPpRlWSM9VwXYQuEdTf5-561" value="" style="endArrow=none;html=1;rounded=0;entryX=1;entryY=0;entryDx=0;entryDy=0;" edge="1" parent="1" target="rPpRlWSM9VwXYQuEdTf5-558">
          <mxGeometry width="50" height="50" relative="1" as="geometry">
            <mxPoint x="2943.75" y="-2192.5" as="sourcePoint" />
            <mxPoint x="2908.75" y="-2156.5" as="targetPoint" />
          </mxGeometry>
        </mxCell>
        <mxCell id="rPpRlWSM9VwXYQuEdTf5-562" value="" style="endArrow=none;html=1;rounded=0;entryX=1;entryY=0.5;entryDx=0;entryDy=0;" edge="1" parent="1" target="rPpRlWSM9VwXYQuEdTf5-558">
          <mxGeometry width="50" height="50" relative="1" as="geometry">
            <mxPoint x="2953.75" y="-2152.5" as="sourcePoint" />
            <mxPoint x="2918.75" y="-2146.5" as="targetPoint" />
          </mxGeometry>
        </mxCell>
        <mxCell id="rPpRlWSM9VwXYQuEdTf5-563" value="city" style="ellipse;whiteSpace=wrap;html=1;" vertex="1" parent="1">
          <mxGeometry x="2867.5" y="-2217.5" width="40" height="20" as="geometry" />
        </mxCell>
        <mxCell id="rPpRlWSM9VwXYQuEdTf5-564" value="state" style="ellipse;whiteSpace=wrap;html=1;" vertex="1" parent="1">
          <mxGeometry x="2907.5" y="-2217.5" width="40" height="20" as="geometry" />
        </mxCell>
        <mxCell id="rPpRlWSM9VwXYQuEdTf5-565" value="zip" style="ellipse;whiteSpace=wrap;html=1;" vertex="1" parent="1">
          <mxGeometry x="2936.25" y="-2202.5" width="40" height="20" as="geometry" />
        </mxCell>
        <mxCell id="rPpRlWSM9VwXYQuEdTf5-566" value="country" style="ellipse;whiteSpace=wrap;html=1;" vertex="1" parent="1">
          <mxGeometry x="2936.25" y="-2167.5" width="40" height="20" as="geometry" />
        </mxCell>
        <mxCell id="rPpRlWSM9VwXYQuEdTf5-567" value="" style="endArrow=none;html=1;rounded=0;entryX=1;entryY=0.5;entryDx=0;entryDy=0;" edge="1" parent="1">
          <mxGeometry width="50" height="50" relative="1" as="geometry">
            <mxPoint x="2933.75" y="-2132.5" as="sourcePoint" />
            <mxPoint x="2913.25" y="-2152" as="targetPoint" />
          </mxGeometry>
        </mxCell>
        <mxCell id="rPpRlWSM9VwXYQuEdTf5-568" value="street_address" style="ellipse;whiteSpace=wrap;html=1;" vertex="1" parent="1">
          <mxGeometry x="2920" y="-2135" width="103.75" height="20" as="geometry" />
        </mxCell>
        <mxCell id="rPpRlWSM9VwXYQuEdTf5-573" value="payment_status" style="ellipse;whiteSpace=wrap;html=1;" vertex="1" parent="1">
          <mxGeometry x="2990" y="-1932.5" width="105" height="40" as="geometry" />
        </mxCell>
        <mxCell id="rPpRlWSM9VwXYQuEdTf5-575" value="shipment_status" style="ellipse;whiteSpace=wrap;html=1;" vertex="1" parent="1">
          <mxGeometry x="3130" y="-1866.25" width="100" height="40" as="geometry" />
        </mxCell>
        <mxCell id="rPpRlWSM9VwXYQuEdTf5-576" value="" style="endArrow=none;html=1;rounded=0;exitX=0.588;exitY=0.032;exitDx=0;exitDy=0;exitPerimeter=0;" edge="1" parent="1">
          <mxGeometry width="50" height="50" relative="1" as="geometry">
            <mxPoint x="3090" y="-1823.12" as="sourcePoint" />
            <mxPoint x="3140" y="-1780" as="targetPoint" />
          </mxGeometry>
        </mxCell>
        <mxCell id="rPpRlWSM9VwXYQuEdTf5-577" value="created_at" style="ellipse;whiteSpace=wrap;html=1;" vertex="1" parent="1">
          <mxGeometry x="3120" y="-1803.75" width="70" height="40" as="geometry" />
        </mxCell>
        <mxCell id="rPpRlWSM9VwXYQuEdTf5-581" value="" style="endArrow=none;html=1;rounded=0;exitX=1;exitY=0.25;exitDx=0;exitDy=0;" edge="1" parent="1" source="rPpRlWSM9VwXYQuEdTf5-132">
          <mxGeometry width="50" height="50" relative="1" as="geometry">
            <mxPoint x="2450" y="-1730" as="sourcePoint" />
            <mxPoint x="2440" y="-1830" as="targetPoint" />
          </mxGeometry>
        </mxCell>
        <mxCell id="rPpRlWSM9VwXYQuEdTf5-582" value="isReturned" style="ellipse;whiteSpace=wrap;html=1;" vertex="1" parent="1">
          <mxGeometry x="2400" y="-1845" width="70" height="30" as="geometry" />
        </mxCell>
        <mxCell id="di3xu35CLowUDpCK8AIs-4" style="edgeStyle=orthogonalEdgeStyle;rounded=0;orthogonalLoop=1;jettySize=auto;html=1;exitX=0.5;exitY=1;exitDx=0;exitDy=0;" edge="1" parent="1" source="rPpRlWSM9VwXYQuEdTf5-541" target="rPpRlWSM9VwXYQuEdTf5-541">
          <mxGeometry relative="1" as="geometry" />
        </mxCell>
        <mxCell id="z_J7w7wu5GQrayQAjd48-2" value="" style="endArrow=none;html=1;rounded=0;exitX=0;exitY=0.25;exitDx=0;exitDy=0;" edge="1" parent="1" source="z_J7w7wu5GQrayQAjd48-1">
          <mxGeometry width="50" height="50" relative="1" as="geometry">
            <mxPoint x="1929" y="-1540" as="sourcePoint" />
            <mxPoint x="1910" y="-1580" as="targetPoint" />
          </mxGeometry>
        </mxCell>
        <mxCell id="z_J7w7wu5GQrayQAjd48-3" value="" style="endArrow=none;html=1;rounded=0;exitX=0;exitY=0.25;exitDx=0;exitDy=0;" edge="1" parent="1" source="rPpRlWSM9VwXYQuEdTf5-64" target="z_J7w7wu5GQrayQAjd48-1">
          <mxGeometry width="50" height="50" relative="1" as="geometry">
            <mxPoint x="1945" y="-1550" as="sourcePoint" />
            <mxPoint x="1910" y="-1580" as="targetPoint" />
          </mxGeometry>
        </mxCell>
        <mxCell id="z_J7w7wu5GQrayQAjd48-1" value="review_count" style="ellipse;whiteSpace=wrap;html=1;" vertex="1" parent="1">
          <mxGeometry x="1840" y="-1597.5" width="80" height="30" as="geometry" />
        </mxCell>
        <mxCell id="z_J7w7wu5GQrayQAjd48-5" value="" style="endArrow=none;html=1;rounded=0;exitX=0;exitY=0.5;exitDx=0;exitDy=0;" edge="1" parent="1" source="z_J7w7wu5GQrayQAjd48-4" target="rPpRlWSM9VwXYQuEdTf5-64">
          <mxGeometry width="50" height="50" relative="1" as="geometry">
            <mxPoint x="2060" y="-1513.5" as="sourcePoint" />
            <mxPoint x="2035" y="-1536.5" as="targetPoint" />
          </mxGeometry>
        </mxCell>
        <mxCell id="z_J7w7wu5GQrayQAjd48-9" value="" style="endArrow=none;html=1;rounded=0;" edge="1" parent="1">
          <mxGeometry relative="1" as="geometry">
            <mxPoint x="2055" y="-1860" as="sourcePoint" />
            <mxPoint x="2082.5" y="-1860" as="targetPoint" />
          </mxGeometry>
        </mxCell>
        <mxCell id="z_J7w7wu5GQrayQAjd48-10" value="&lt;b&gt;&lt;font style=&quot;font-size: 15px;&quot;&gt;N&lt;/font&gt;&lt;/b&gt;" style="text;html=1;align=center;verticalAlign=middle;whiteSpace=wrap;rounded=0;" vertex="1" parent="1">
          <mxGeometry x="2013.4299999999998" y="-1860" width="70" height="50" as="geometry" />
        </mxCell>
        <mxCell id="z_J7w7wu5GQrayQAjd48-11" value="" style="endArrow=none;html=1;rounded=0;" edge="1" parent="1" source="rPpRlWSM9VwXYQuEdTf5-490" target="rPpRlWSM9VwXYQuEdTf5-120">
          <mxGeometry width="50" height="50" relative="1" as="geometry">
            <mxPoint x="2039" y="-1792" as="sourcePoint" />
            <mxPoint x="2040" y="-1820" as="targetPoint" />
          </mxGeometry>
        </mxCell>
        <mxCell id="z_J7w7wu5GQrayQAjd48-13" value="" style="endArrow=none;html=1;rounded=0;entryX=0.543;entryY=0.071;entryDx=0;entryDy=0;entryPerimeter=0;" edge="1" parent="1" source="GgLwPMv9YuK2Pm7wXXBy-36" target="z_J7w7wu5GQrayQAjd48-15">
          <mxGeometry width="50" height="50" relative="1" as="geometry">
            <mxPoint x="2270" y="-2090" as="sourcePoint" />
            <mxPoint x="2170" y="-1840" as="targetPoint" />
          </mxGeometry>
        </mxCell>
        <mxCell id="z_J7w7wu5GQrayQAjd48-15" value="lists" style="rhombus;whiteSpace=wrap;html=1;" vertex="1" parent="1">
          <mxGeometry x="2139.35" y="-1881.25" width="53.19" height="50" as="geometry" />
        </mxCell>
        <mxCell id="z_J7w7wu5GQrayQAjd48-16" value="" style="endArrow=none;html=1;rounded=0;entryX=0.388;entryY=0.872;entryDx=0;entryDy=0;entryPerimeter=0;exitX=0.917;exitY=0.079;exitDx=0;exitDy=0;exitPerimeter=0;" edge="1" parent="1" source="rPpRlWSM9VwXYQuEdTf5-64" target="z_J7w7wu5GQrayQAjd48-15">
          <mxGeometry width="50" height="50" relative="1" as="geometry">
            <mxPoint x="2036" y="-1546" as="sourcePoint" />
            <mxPoint x="2235" y="-1785" as="targetPoint" />
          </mxGeometry>
        </mxCell>
        <mxCell id="z_J7w7wu5GQrayQAjd48-17" value="&lt;b&gt;&lt;font style=&quot;font-size: 15px;&quot;&gt;M&lt;/font&gt;&lt;/b&gt;" style="text;html=1;align=center;verticalAlign=middle;whiteSpace=wrap;rounded=0;" vertex="1" parent="1">
          <mxGeometry x="2130.95" y="-1845" width="70" height="50" as="geometry" />
        </mxCell>
        <mxCell id="z_J7w7wu5GQrayQAjd48-19" value="&lt;b&gt;&lt;font style=&quot;font-size: 15px;&quot;&gt;N&lt;/font&gt;&lt;/b&gt;" style="text;html=1;align=center;verticalAlign=middle;whiteSpace=wrap;rounded=0;" vertex="1" parent="1">
          <mxGeometry x="2147.66" y="-1910" width="70" height="50" as="geometry" />
        </mxCell>
        <mxCell id="z_J7w7wu5GQrayQAjd48-20" value="list_name" style="ellipse;whiteSpace=wrap;html=1;" vertex="1" parent="1">
          <mxGeometry x="2110" y="-1901.25" width="55" height="17.5" as="geometry" />
        </mxCell>
        <mxCell id="z_J7w7wu5GQrayQAjd48-21" value="" style="endArrow=none;html=1;rounded=0;" edge="1" parent="1" source="z_J7w7wu5GQrayQAjd48-20" target="z_J7w7wu5GQrayQAjd48-15">
          <mxGeometry width="50" height="50" relative="1" as="geometry">
            <mxPoint x="2333" y="-1739" as="sourcePoint" />
            <mxPoint x="2290" y="-1730" as="targetPoint" />
          </mxGeometry>
        </mxCell>
        <mxCell id="z_J7w7wu5GQrayQAjd48-22" value="id" style="ellipse;whiteSpace=wrap;html=1;" vertex="1" parent="1">
          <mxGeometry x="2181.85" y="-1846.87" width="30.65" height="21.25" as="geometry" />
        </mxCell>
        <mxCell id="z_J7w7wu5GQrayQAjd48-23" value="" style="endArrow=none;html=1;rounded=0;" edge="1" parent="1" source="z_J7w7wu5GQrayQAjd48-22" target="z_J7w7wu5GQrayQAjd48-15">
          <mxGeometry width="50" height="50" relative="1" as="geometry">
            <mxPoint x="2076" y="-1843" as="sourcePoint" />
            <mxPoint x="2067" y="-1808" as="targetPoint" />
          </mxGeometry>
        </mxCell>
        <mxCell id="z_J7w7wu5GQrayQAjd48-24" value="" style="endArrow=none;html=1;rounded=0;" edge="1" parent="1">
          <mxGeometry relative="1" as="geometry">
            <mxPoint x="2182.0299999999997" y="-1830.42" as="sourcePoint" />
            <mxPoint x="2209.5299999999997" y="-1830.42" as="targetPoint" />
          </mxGeometry>
        </mxCell>
        <mxCell id="Ck_vDfP_zAcGL2_wQchA-1" value="&lt;span style=&quot;border-bottom: 1px dotted&quot;&gt;id&lt;/span&gt;" style="ellipse;whiteSpace=wrap;html=1;align=center;" vertex="1" parent="1">
          <mxGeometry x="2263" y="-1958" width="57" height="28" as="geometry" />
        </mxCell>
        <mxCell id="Ck_vDfP_zAcGL2_wQchA-2" value="&lt;span style=&quot;border-bottom: 1px dotted&quot;&gt;cart_id&lt;/span&gt;" style="ellipse;whiteSpace=wrap;html=1;align=center;" vertex="1" parent="1">
          <mxGeometry x="2210" y="-1746" width="91" height="36" as="geometry" />
        </mxCell>
        <mxCell id="Ck_vDfP_zAcGL2_wQchA-3" value="&lt;span style=&quot;border-bottom: 1px dotted&quot;&gt;order_id&lt;/span&gt;" style="ellipse;whiteSpace=wrap;html=1;align=center;" vertex="1" parent="1">
          <mxGeometry x="2662.5" y="-1841.25" width="87.5" height="31.25" as="geometry" />
        </mxCell>
        <mxCell id="Ck_vDfP_zAcGL2_wQchA-5" value="&lt;span style=&quot;border-bottom: 1px dotted&quot;&gt;id&lt;/span&gt;" style="ellipse;whiteSpace=wrap;html=1;align=center;" vertex="1" parent="1">
          <mxGeometry x="3105" y="-1915" width="100" height="40" as="geometry" />
        </mxCell>
        <mxCell id="Ck_vDfP_zAcGL2_wQchA-6" value="&lt;span style=&quot;border-bottom: 1px dotted&quot;&gt;shipment_id&lt;/span&gt;" style="ellipse;whiteSpace=wrap;html=1;align=center;" vertex="1" parent="1">
          <mxGeometry x="2930" y="-1368.75" width="100" height="40" as="geometry" />
        </mxCell>
        <mxCell id="Ck_vDfP_zAcGL2_wQchA-8" value="&lt;span style=&quot;border-bottom: 1px dotted&quot;&gt;store_id&lt;/span&gt;" style="ellipse;whiteSpace=wrap;html=1;align=center;" vertex="1" parent="1">
          <mxGeometry x="1860" y="-1867" width="73" height="37" as="geometry" />
        </mxCell>
        <mxCell id="Ck_vDfP_zAcGL2_wQchA-9" value="&lt;span style=&quot;border-bottom: 1px dotted&quot;&gt;id&lt;/span&gt;" style="ellipse;whiteSpace=wrap;html=1;align=center;" vertex="1" parent="1">
          <mxGeometry x="1750" y="-2500" width="100" height="40" as="geometry" />
        </mxCell>
        <mxCell id="Ck_vDfP_zAcGL2_wQchA-10" value="&lt;span style=&quot;border-bottom: 1px dotted&quot;&gt;shipping_id&lt;/span&gt;" style="ellipse;whiteSpace=wrap;html=1;align=center;" vertex="1" parent="1">
          <mxGeometry x="2777.5" y="-2250" width="92.5" height="32.5" as="geometry" />
        </mxCell>
        <mxCell id="Ck_vDfP_zAcGL2_wQchA-12" value="&lt;span style=&quot;border-bottom: 1px dotted&quot;&gt;cart_idem_id&lt;/span&gt;" style="ellipse;whiteSpace=wrap;html=1;align=center;" vertex="1" parent="1">
          <mxGeometry x="2210" y="-1517.5" width="83" height="35" as="geometry" />
        </mxCell>
        <mxCell id="ivYh9PMSLgaFD37jbH0D-3" value="" style="endArrow=none;html=1;rounded=0;exitX=0.371;exitY=-0.033;exitDx=0;exitDy=0;exitPerimeter=0;entryX=0.392;entryY=0.892;entryDx=0;entryDy=0;entryPerimeter=0;" edge="1" parent="1" source="rPpRlWSM9VwXYQuEdTf5-155" target="rPpRlWSM9VwXYQuEdTf5-149">
          <mxGeometry width="50" height="50" relative="1" as="geometry">
            <mxPoint x="2250" y="-1890" as="sourcePoint" />
            <mxPoint x="2250" y="-1960" as="targetPoint" />
          </mxGeometry>
        </mxCell>
        <mxCell id="e0yl_6teW4--W81ir7sx-1" value="&lt;font style=&quot;font-size: 15px;&quot;&gt;o&lt;/font&gt;&lt;div&gt;&lt;br&gt;&lt;/div&gt;" style="ellipse;whiteSpace=wrap;html=1;aspect=fixed;" vertex="1" parent="1">
          <mxGeometry x="1795" y="-1260" width="40" height="40" as="geometry" />
        </mxCell>
        <mxCell id="e0yl_6teW4--W81ir7sx-2" value="STANDART" style="rounded=0;whiteSpace=wrap;html=1;fillColor=#dae8fc;strokeColor=#6c8ebf;" vertex="1" parent="1">
          <mxGeometry x="1655" y="-1130" width="110" height="30" as="geometry" />
        </mxCell>
        <mxCell id="e0yl_6teW4--W81ir7sx-3" value="CODE" style="rounded=0;whiteSpace=wrap;html=1;fillColor=#dae8fc;strokeColor=#6c8ebf;" vertex="1" parent="1">
          <mxGeometry x="1845" y="-1130" width="120" height="30" as="geometry" />
        </mxCell>
        <mxCell id="e0yl_6teW4--W81ir7sx-4" value="" style="endArrow=none;html=1;rounded=0;exitX=0.5;exitY=0;exitDx=0;exitDy=0;entryX=0;entryY=1;entryDx=0;entryDy=0;" edge="1" parent="1" source="e0yl_6teW4--W81ir7sx-2" target="e0yl_6teW4--W81ir7sx-1">
          <mxGeometry width="50" height="50" relative="1" as="geometry">
            <mxPoint x="1725" y="-1280" as="sourcePoint" />
            <mxPoint x="1775" y="-1330" as="targetPoint" />
          </mxGeometry>
        </mxCell>
        <mxCell id="e0yl_6teW4--W81ir7sx-5" value="" style="endArrow=none;html=1;rounded=0;entryX=0.561;entryY=0.072;entryDx=0;entryDy=0;entryPerimeter=0;exitX=1;exitY=1;exitDx=0;exitDy=0;" edge="1" parent="1">
          <mxGeometry width="50" height="50" relative="1" as="geometry">
            <mxPoint x="1832.9821356236946" y="-1228.0178643763052" as="sourcePoint" />
            <mxPoint x="1916.16" y="-1129.9999999999995" as="targetPoint" />
          </mxGeometry>
        </mxCell>
        <mxCell id="e0yl_6teW4--W81ir7sx-6" value="valid_from" style="ellipse;whiteSpace=wrap;html=1;align=center;" vertex="1" parent="1">
          <mxGeometry x="1685" y="-1270" width="70" height="40" as="geometry" />
        </mxCell>
        <mxCell id="e0yl_6teW4--W81ir7sx-10" value="" style="shape=requiredInterface;html=1;verticalLabelPosition=bottom;sketch=0;rotation=15;direction=north;fillColor=default;strokeColor=#6c8ebf;" vertex="1" parent="1">
          <mxGeometry x="1760.0000000000002" y="-1200" width="24.35" height="15" as="geometry" />
        </mxCell>
        <mxCell id="e0yl_6teW4--W81ir7sx-11" value="" style="shape=requiredInterface;html=1;verticalLabelPosition=bottom;sketch=0;rotation=-45;direction=north;fillColor=default;strokeColor=#6c8ebf;" vertex="1" parent="1">
          <mxGeometry x="1845.6500000000003" y="-1210" width="24.35" height="15" as="geometry" />
        </mxCell>
        <mxCell id="e0yl_6teW4--W81ir7sx-12" value="coupon_code" style="ellipse;whiteSpace=wrap;html=1;align=center;" vertex="1" parent="1">
          <mxGeometry x="1995" y="-1180" width="110" height="40" as="geometry" />
        </mxCell>
        <mxCell id="e0yl_6teW4--W81ir7sx-13" value="" style="endArrow=none;html=1;rounded=0;exitX=0;exitY=1;exitDx=0;exitDy=0;" edge="1" parent="1" source="e0yl_6teW4--W81ir7sx-12" target="e0yl_6teW4--W81ir7sx-3">
          <mxGeometry width="50" height="50" relative="1" as="geometry">
            <mxPoint x="1865" y="-1330" as="sourcePoint" />
            <mxPoint x="1855" y="-1360" as="targetPoint" />
          </mxGeometry>
        </mxCell>
      </root>
    </mxGraphModel>
  </diagram>
</mxfile>
